<?xml version="1.0" encoding="utf-8"?>
<!-- Generator: Adobe Illustrator 24.1.3, SVG Export Plug-In . SVG Version: 6.00 Build 0)  -->
<svg version="1.1" id="Layer_1" xmlns="http://www.w3.org/2000/svg" xmlns:xlink="http://www.w3.org/1999/xlink" x="0px" y="0px"
	 viewBox="0 0 172 54" style="enable-background:new 0 0 172 54;" xml:space="preserve">
<style type="text/css">
	.st0{fill:#00AEEF;}
	.st1{fill:#1C2B39;}
</style>
<g>
	<path class="st0" d="M130.24,6.63c0-3.27,2.45-5.63,5.72-5.63s5.8,2.37,5.8,5.63s-2.53,5.55-5.8,5.55S130.24,9.9,130.24,6.63z"/>
	<path class="st1" d="M116.41,26.88v-0.49c3.84-1.96,6.29-5.71,6.29-10.2c0-8.41-5.8-13.31-16.98-13.31h-4.77h-4.19H84.42
		c-0.46,0-0.83,0.37-0.83,0.83v47.33c0,0.46,0.37,0.83,0.83,0.83h11.16h7.69h3.02c11.1,0,17.8-5.06,17.8-14.29
		C124.09,32.27,121.23,28.35,116.41,26.88z M93.47,12.36c0-0.46,0.37-0.83,0.83-0.83h1.41h6.52h3.33c4.16,0,6.78,2.2,6.78,5.96
		c0,3.27-2.77,5.8-6.94,5.8h-3.01h-7.59H94.3c-0.46,0-0.83-0.37-0.83-0.83V12.36z M106.37,43.21h-3.92h-7.44H94.3
		c-0.46,0-0.83-0.37-0.83-0.83V31.79c0-0.46,0.37-0.83,0.83-0.83h0.42h7.74h3.84c4.16,0,7.27,2.61,7.27,6.12
		C113.55,40.76,110.53,43.21,106.37,43.21z"/>
	<g>
		<path class="st1" d="M130.97,18.4c0-0.46,0.37-0.83,0.83-0.83h8.14c0.46,0,0.83,0.37,0.83,0.83v32.63c0,0.46-0.37,0.83-0.83,0.83
			h-8.14c-0.46,0-0.83-0.37-0.83-0.83V18.4z"/>
	</g>
	<path class="st1" d="M15.78,2.88H1.67c-0.46,0-0.83,0.37-0.83,0.83v7c0,0.46,0.37,0.83,0.83,0.83h3.68H5.9h0.83v0.83v0.29v38.39
		c0,0.46,0.37,0.83,0.83,0.83h8.22c0.46,0,0.83-0.37,0.83-0.83V3.71C16.61,3.25,16.24,2.88,15.78,2.88z"/>
	<path class="st1" d="M171.07,47.65l-2.12-4.39c-0.2-0.42-0.68-0.61-1.15-0.41c-1.57,0.72-4.08,1.42-5.52,1.42
		c-2.53,0-3.67-1.39-3.67-3.76v-6.38v-6.36v-2.61h9.61c0.46,0,0.83-0.37,0.83-0.83V18.4c0-0.46-0.37-0.83-0.83-0.83h-9.61V7.95
		c0-0.46-0.37-0.83-0.83-0.83h-8.14c-0.46,0-0.83,0.37-0.83,0.83v18.53l0,0v14.36c0,6.86,3.19,11.84,11.1,11.84
		c3.15,0,7.81-1.79,10.78-3.83C171.15,48.54,171.27,48.07,171.07,47.65z"/>
	<path class="st0" d="M56.12,36.19c-1.16,1.7-1.84,3.74-1.84,5.95c0,0.25,0.02,0.49,0.04,0.73c-1.34,0.36-2.75,0.58-4.21,0.58
		c-8.88,0-16.08-7.2-16.08-16.08c0-8.88,7.2-16.08,16.08-16.08c8.88,0,16.08,7.2,16.08,16.08c0,1.48-0.22,2.9-0.59,4.25
		c-0.25-0.02-0.5-0.04-0.76-0.04c-2.21,0-4.26,0.68-5.95,1.84L73.56,48.1c1.16-1.7,1.84-3.74,1.84-5.95c0-1.97-0.55-3.8-1.48-5.37
		c1.14-2.9,1.77-6.06,1.77-9.36c0-14.13-11.46-25.59-25.59-25.59c-14.13,0-25.59,11.46-25.59,25.59S35.97,53,50.1,53
		c3.31,0,6.46-0.63,9.36-1.77c1.58,0.94,3.41,1.48,5.37,1.48c2.21,0,4.26-0.68,5.95-1.84L56.12,36.19z"/>
</g>
</svg>
