<svg width="110" height="31" viewBox="0 0 110 31" fill="none" xmlns="http://www.w3.org/2000/svg">
<g clip-path="url(#clip0_3042_10437)">
<path d="M0 0.0078125C0 0.0078125 0.353278 0.00865969 0.530341 0.00865969C8.5329 0.0112013 16.5363 0.0103541 24.5389 0.0103541C24.699 0.0103541 24.8591 0.0103541 25.1149 0.0103541C18.2569 9.89537 11.1922 20.137 4.38167 29.9543C4.34015 29.9289 4.29949 29.9035 4.25798 29.8789C7.6137 22.3025 11.2244 14.3024 14.603 6.6735C9.69524 6.6735 4.84762 6.6735 0 6.6735C0 4.43862 0 2.2427 0 0.0078125Z" fill="#00AE41"/>
<path d="M103.172 15.6917C103.172 15.8585 103.172 16.0263 103.172 16.294C96.139 10.8296 89.192 5.43133 82.2019 0C82.1849 0.138939 82.1756 0.182993 82.1756 0.2262C82.1747 10.0112 82.1764 20.6867 82.168 30.5014H88.4439C88.4321 25.5309 88.4363 19.7285 88.4363 14.8021C88.4363 14.6394 88.4363 14.4776 88.4363 14.2099C95.4587 19.6667 102.404 25.0633 109.411 30.5082C109.422 30.3082 109.433 30.2066 109.433 30.1049C109.434 20.3766 109.432 9.75793 109.44 0H103.161C103.177 4.96877 103.172 10.7678 103.172 15.6917Z" fill="#3160AD"/>
<path d="M65.9621 5.97111C69.7414 5.98636 74.3806 5.97619 78.2175 5.98721V0.0170606C72.3067 0.0280741 64.4549 0.0289213 58.5873 0.0136719C58.5398 0.0136719 58.4975 0.0153663 58.4585 0.0179078V30.4905H78.2184V24.5424C74.3865 24.5534 69.7609 24.5432 65.9909 24.5593C65.5664 24.561 65.4275 24.5551 65.4275 24.5551C65.4588 22.765 65.4546 19.915 65.4292 18.1249H65.9621C68.8849 18.1418 72.6616 18.1274 75.6488 18.1427V12.1802C72.6489 12.198 68.8654 12.181 65.9324 12.1988C65.5147 12.2013 65.4309 12.2013 65.4309 12.2013C65.452 10.4722 65.4554 7.69853 65.4292 5.96857C65.4283 5.96942 65.5495 5.96942 65.9621 5.97111Z" fill="#3160AD"/>
<path d="M54.9105 8.88043C54.1997 7.11658 53.1746 5.56368 51.7988 4.25139C48.9607 1.54462 45.5482 0.194194 41.6494 0.0078125C41.2682 0.00865969 40.8861 0.00865969 40.5049 0.00950688C39.85 0.0289922 39.1985 0.0908371 38.5513 0.191653C34.6025 0.803324 31.3061 2.58496 28.8399 5.74414C26.1094 9.24218 25.1953 13.2511 25.8282 17.6006C26.4517 21.8848 28.5341 25.3346 32.1499 27.7558C36.3011 30.5355 40.8683 31.0743 45.6465 29.8543C49.6672 28.8275 52.6282 26.4232 54.3827 22.6413C55.8619 19.4525 56.0898 16.0739 55.7687 12.6259C55.739 12.3031 55.739 12.3166 55.739 12.3166C51.0736 12.32 45.1831 12.3234 40.4651 12.3107V17.9801C43.1193 17.9665 46.9156 17.975 49.4936 17.9708C49.4936 17.9708 49.4936 17.964 49.4182 18.3088C49.0293 20.0879 48.2677 21.6518 46.8283 22.8294C45.4601 23.9486 43.8564 24.4467 42.1222 24.5746C39.318 24.7813 36.7637 24.1443 34.6525 22.2093C32.7421 20.4581 31.8347 18.2224 31.7449 15.6613C31.6382 12.6267 32.5786 9.98856 34.9329 7.97648C37.0212 6.19145 39.5077 5.6052 42.1882 5.89663C44.5163 6.14909 46.5165 7.10811 47.9593 9.02954C47.983 9.06088 48.0245 9.13459 48.0771 9.23371H55.0088C55.002 9.1007 54.9401 8.95499 54.9105 8.88043Z" fill="#3160AD"/>
<path d="M26.5398 0.443359C19.8012 10.2725 12.8433 20.4743 6.08691 30.3297H13.6921C13.7769 30.1526 13.8455 29.9857 13.8938 29.873C16.11 24.723 18.5931 19.1552 20.8204 14.0103C22.6995 9.67011 24.5819 5.33165 26.4559 0.990644C26.5177 0.849163 26.6677 0.707683 26.5398 0.443359Z" fill="#3160AD"/>
</g>
<defs>
<clipPath id="clip0_3042_10437">
<rect width="109.44" height="30.5082" fill="white"/>
</clipPath>
</defs>
</svg>
