<svg width="189" height="82" viewBox="0 0 189 82" fill="none" xmlns="http://www.w3.org/2000/svg">
<path d="M27.3217 62.5396L9.67376 28.1493L17.5906 12.7112L66.5833 8.86777L80.3732 22.0227L80.1939 56.549L67.8669 72.3449L27.3217 62.5396ZM69.7457 0L12.1191 4.52335L0 28.1493L21.463 69.9616L71.2445 82L88.7849 59.5192L89 18.3725L69.7457 0Z" fill="#07D897"/>
<path d="M184.847 46.0694C184.364 46.473 181.755 48.5478 179.318 48.5478C177.562 48.5478 176.667 47.5281 176.667 45.5242C176.667 43.3928 177.569 42.3094 179.353 42.3094H184.847V46.0694ZM181.236 31.4046C178.06 31.4046 174.421 32.2048 174.385 32.2118L174.186 32.2543L174.499 35.3063L174.748 35.2638C174.783 35.2638 178.486 34.5769 181.272 34.5769C183.617 34.5769 184.847 36.3259 184.847 38.0608V39.13H179.197C175.558 39.13 173.205 41.6509 173.205 45.5596C173.205 49.4683 175.558 51.7626 179.197 51.7626C181.599 51.7626 184.065 50.3889 184.925 49.8578L185.096 51.3802H188.258V37.8342C188.258 33.9254 185.501 31.4046 181.229 31.4046M164.84 33.8263L164.741 31.787H161.485V51.3802H164.947V37.7209C165.302 37.2819 167.626 34.5769 170.746 34.5769H170.974V31.3975H170.739C167.797 31.4329 165.665 33.0686 164.84 33.8192M145.231 39.7815C145.231 39.3708 145.238 38.521 145.267 38.0749C145.388 35.9506 146.958 34.5769 149.261 34.5769C151.329 34.5769 152.95 36.0781 153.028 38.0749C153.056 38.521 153.063 39.3708 153.063 39.7815H145.231ZM149.183 31.3975C145.011 31.3975 141.976 34.0387 141.806 37.8483C141.77 39.1229 141.727 40.3196 141.727 41.5801C141.727 42.8405 141.763 44.0088 141.806 45.3401C141.976 49.2417 144.876 51.7626 149.183 51.7626C153.49 51.7626 155.707 50.8633 155.8 50.8279L155.97 50.7571L155.522 47.7618L155.274 47.8255C155.274 47.8255 152.189 48.5832 149.147 48.5832C146.574 48.5832 145.331 46.7705 145.267 45.0922C145.238 44.4833 145.231 43.4282 145.231 42.9609H156.482V37.8342C156.482 34.1096 153.412 31.4046 149.183 31.4046M133.391 51.3873H136.809V24.1324H133.391V51.3873ZM123.938 51.3873H127.356V24.1324H123.938V51.3873ZM107.954 39.7886C107.954 39.3779 107.961 38.5281 107.989 38.082C108.11 35.9577 109.681 34.584 111.984 34.584C114.052 34.584 115.672 36.0852 115.75 38.082C115.779 38.5281 115.786 39.3779 115.786 39.7886H107.954ZM111.912 31.4046C107.74 31.4046 104.706 34.0458 104.535 37.8554C104.5 39.13 104.457 40.3267 104.457 41.5871C104.457 42.8476 104.492 44.0159 104.535 45.3472C104.706 49.2488 107.605 51.7697 111.912 51.7697C116.219 51.7697 118.437 50.8704 118.529 50.835L118.7 50.7642L118.252 47.7689L118.003 47.8326C118.003 47.8326 114.919 48.5903 111.877 48.5903C109.304 48.5903 108.06 46.7775 107.996 45.0993C107.968 44.4904 107.961 43.4353 107.961 42.9679H119.219V37.8413C119.219 34.1166 116.148 31.4117 111.92 31.4117M100.122 47.5635C100.079 47.5706 95.58 48.3283 93.3626 48.3283C90.413 48.3283 87.2006 46.6005 87.1011 42.8122C87.0229 39.4628 87.0229 36.0639 87.1011 32.7217C87.165 30.0663 89.1551 27.2055 93.3626 27.2055C95.6582 27.2055 99.887 27.9207 99.9296 27.9278L100.185 27.9703L100.321 24.6918L100.136 24.6493C100.136 24.6493 96.575 23.7642 93.3554 23.7642C87.6696 23.7642 83.4551 27.5313 83.3271 32.7146C83.2489 36.071 83.2489 39.4699 83.3271 42.8263C83.4551 48.0096 87.6696 51.7767 93.3554 51.7767C96.4613 51.7767 100.285 50.8633 100.328 50.8491L100.512 50.8066L100.377 47.5281L100.122 47.5706V47.5635ZM74.2299 45.0993C74.1659 46.7067 73.1211 48.5903 70.3919 48.5903C67.9328 48.5903 66.355 48.2929 65.8575 48.1796V36.2126C66.4261 35.9152 68.9136 34.6973 71.0458 34.6973C73.8816 34.6973 74.2014 37.2819 74.237 38.0749C74.3151 40.4046 74.3151 42.7697 74.237 45.0993M71.124 31.5179C68.8497 31.5179 66.682 32.4384 65.8646 32.8279V24.1324H62.446V50.7571L62.6166 50.7996C62.6522 50.8066 66.419 51.7626 70.3919 51.7626C74.8269 51.7626 77.556 49.3621 77.6911 45.3401C77.7693 42.8476 77.7693 40.3196 77.6911 37.82C77.556 33.8688 75.104 31.5108 71.124 31.5108M43.2352 40.2771L47.1655 27.6092L51.0958 40.2771H43.2352ZM44.5998 24.1253L36 51.3802H39.8663L42.2473 43.6123H52.1263L54.5073 51.3802H58.4162L49.7383 24.1253H44.5998Z" fill="white"/>
</svg>
