<?xml version="1.0" encoding="UTF-8"?>
<svg xmlns="http://www.w3.org/2000/svg" width="1503" height="266" viewBox="0 0 1503 266" fill="none">
  <g clip-path="url(#clip0_20_1943)">
    <path d="M365.203 199.106C357.395 195.758 351.293 190.966 346.765 184.73C342.238 178.493 339.942 171.075 339.81 162.607H369.73C370.124 168.318 372.158 172.848 375.832 176.196C379.506 179.544 384.493 181.185 390.857 181.185C397.222 181.185 402.471 179.609 406.211 176.524C409.951 173.373 411.788 169.303 411.788 164.248C411.788 160.112 410.541 156.764 407.982 154.073C405.423 151.447 402.274 149.346 398.534 147.771C394.728 146.261 389.545 144.554 382.852 142.716C373.798 140.024 366.449 137.398 360.807 134.838C355.164 132.212 350.308 128.339 346.24 123.088C342.172 117.836 340.138 110.812 340.138 102.015C340.138 93.7435 342.172 86.588 346.306 80.4829C350.44 74.3777 356.214 69.6512 363.628 66.4345C371.042 63.1522 379.572 61.5767 389.151 61.5767C403.521 61.5767 415.2 65.0559 424.123 72.0801C433.112 79.0387 438.033 88.82 438.952 101.293H408.245C407.982 96.5007 405.948 92.5619 402.143 89.4108C398.337 86.2598 393.351 84.7499 387.117 84.7499C381.671 84.7499 377.341 86.1285 374.06 88.9513C370.78 91.7741 369.205 95.7785 369.205 101.096C369.205 104.838 370.452 107.923 372.879 110.352C375.307 112.847 378.391 114.816 382.065 116.326C385.739 117.836 390.857 119.608 397.55 121.578C406.604 124.269 413.953 126.895 419.661 129.587C425.37 132.278 430.291 136.217 434.424 141.534C438.558 146.852 440.592 153.81 440.592 162.475C440.592 169.894 438.689 176.852 434.818 183.22C430.947 189.588 425.304 194.708 417.89 198.45C410.476 202.257 401.618 204.161 391.382 204.161C381.671 204.161 372.945 202.52 365.137 199.172L365.203 199.106Z" fill="white"></path>
    <path d="M566.635 155.845H485.865C486.521 163.854 489.343 170.09 494.264 174.62C499.185 179.15 505.221 181.382 512.438 181.382C522.805 181.382 530.154 176.918 534.55 167.99H564.666C561.451 178.625 555.349 187.356 546.295 194.248C537.24 201.076 526.152 204.489 512.963 204.489C502.334 204.489 492.82 202.126 484.356 197.399C475.892 192.673 469.331 185.977 464.606 177.377C459.882 168.712 457.52 158.734 457.52 147.442C457.52 136.151 459.817 125.976 464.475 117.311C469.134 108.645 475.629 102.015 484.028 97.354C492.426 92.6931 502.072 90.3955 512.963 90.3955C523.855 90.3955 532.844 92.6275 541.177 97.1571C549.51 101.687 555.94 108.12 560.533 116.392C565.126 124.729 567.422 134.247 567.422 145.013C567.422 149.018 567.16 152.563 566.635 155.78V155.845ZM538.552 137.07C538.421 129.915 535.797 124.138 530.744 119.805C525.692 115.473 519.525 113.306 512.176 113.306C505.287 113.306 499.447 115.407 494.723 119.608C489.999 123.81 487.112 129.587 486.062 137.07H538.487H538.552Z" fill="white"></path>
    <path d="M629.755 95.5814C635.529 92.2335 642.156 90.5923 649.57 90.5923V119.936H642.221C633.429 119.936 626.802 121.971 622.406 126.107C617.944 130.243 615.713 137.398 615.713 147.639V202.717H587.828V92.1678H615.713V109.302C619.322 103.459 623.981 98.8638 629.755 95.5158V95.5814Z" fill="white"></path>
    <path d="M711.115 95.4505C717.414 92.0369 724.631 90.3301 732.767 90.3301C742.216 90.3301 750.745 92.6277 758.422 97.2886C766.033 101.95 772.135 108.58 776.597 117.114C781.059 125.714 783.289 135.626 783.289 146.917C783.289 158.209 781.059 168.253 776.597 176.918C772.135 185.649 766.099 192.411 758.422 197.137C750.745 201.929 742.216 204.293 732.767 204.293C724.631 204.293 717.545 202.651 711.312 199.303C705.144 195.955 700.092 191.82 696.286 186.765V255.169H668.401V92.1682H696.286V108.12C699.895 103.066 704.816 98.8641 711.115 95.4505ZM750.614 129.784C747.858 124.926 744.315 121.25 739.854 118.689C735.392 116.195 730.602 114.882 725.419 114.882C720.235 114.882 715.642 116.195 711.181 118.755C706.719 121.381 703.11 125.123 700.42 130.046C697.664 134.97 696.352 140.747 696.352 147.377C696.352 154.007 697.73 159.784 700.42 164.708C703.176 169.631 706.719 173.373 711.181 175.999C715.642 178.625 720.366 179.872 725.419 179.872C730.471 179.872 735.392 178.559 739.854 175.868C744.315 173.242 747.924 169.434 750.614 164.511C753.37 159.587 754.682 153.745 754.682 146.983C754.682 140.221 753.304 134.576 750.614 129.718V129.784Z" fill="white"></path>
    <path d="M922.586 202.717H894.7L831.515 107.136V202.717H803.629V63.2837H831.515L894.7 159.062V63.2837H922.586V202.717Z" fill="white"></path>
    <path d="M949.619 117.311C954.08 108.645 960.117 102.015 967.794 97.354C975.405 92.6931 984 90.3955 993.383 90.3955C1001.65 90.3955 1008.87 92.0367 1015.04 95.3846C1021.2 98.7326 1026.19 102.934 1029.86 107.923V92.168H1057.95V202.717H1029.86V186.568C1026.25 191.754 1021.33 196.021 1015.04 199.434C1008.74 202.848 1001.45 204.489 993.186 204.489C983.869 204.489 975.405 202.126 967.794 197.334C960.117 192.542 954.08 185.78 949.619 177.115C945.157 168.384 942.926 158.405 942.926 147.114C942.926 135.823 945.157 126.042 949.619 117.376V117.311ZM1025.86 129.98C1023.17 125.123 1019.63 121.381 1015.1 118.82C1010.57 116.195 1005.72 114.947 1000.53 114.947C995.351 114.947 990.561 116.195 986.165 118.755C981.769 121.315 978.226 124.991 975.47 129.849C972.715 134.707 971.402 140.484 971.402 147.114C971.402 153.744 972.78 159.587 975.47 164.576C978.226 169.565 981.769 173.373 986.231 176.064C990.693 178.756 995.417 180.069 1000.47 180.069C1005.52 180.069 1010.51 178.756 1015.04 176.196C1019.56 173.57 1023.17 169.894 1025.8 165.036C1028.49 160.178 1029.8 154.335 1029.8 147.574C1029.8 140.812 1028.49 134.97 1025.8 130.112L1025.86 129.98Z" fill="white"></path>
    <path d="M1255.24 103.065C1263.58 111.402 1267.71 122.956 1267.71 137.858V202.717H1239.83V141.665C1239.83 133 1237.66 126.435 1233.26 121.84C1228.87 117.245 1222.9 114.947 1215.35 114.947C1207.81 114.947 1201.77 117.245 1197.31 121.84C1192.85 126.435 1190.62 133.066 1190.62 141.665V202.717H1162.73V141.665C1162.73 133 1160.57 126.435 1156.17 121.84C1151.77 117.245 1145.8 114.947 1138.26 114.947C1130.71 114.947 1124.48 117.245 1120.02 121.84C1115.55 126.435 1113.32 133.066 1113.32 141.665V202.717H1085.44V92.1678H1113.32V105.56C1116.93 100.899 1121.53 97.2226 1127.17 94.5967C1132.81 91.9052 1139.04 90.5923 1145.8 90.5923C1154.46 90.5923 1162.14 92.4304 1168.96 96.1066C1175.72 99.7828 1180.97 104.969 1184.71 111.796C1188.32 105.428 1193.5 100.308 1200.39 96.4348C1207.22 92.5617 1214.63 90.6579 1222.64 90.6579C1236.22 90.6579 1247.11 94.7937 1255.44 103.131L1255.24 103.065Z" fill="white"></path>
    <path d="M1396.12 155.845H1315.35C1316 163.854 1318.82 170.09 1323.74 174.62C1328.67 179.15 1334.7 181.382 1341.92 181.382C1352.29 181.382 1359.63 176.918 1364.03 167.99H1394.15C1390.93 178.625 1384.83 187.356 1375.78 194.248C1366.72 201.076 1355.63 204.489 1342.51 204.489C1331.88 204.489 1322.37 202.126 1313.9 197.399C1305.44 192.673 1298.88 185.977 1294.15 177.377C1289.43 168.712 1287.07 158.734 1287.07 147.442C1287.07 136.151 1289.36 125.976 1294.02 117.311C1298.68 108.645 1305.18 102.015 1313.57 97.354C1321.97 92.6931 1331.62 90.3955 1342.51 90.3955C1353.4 90.3955 1362.39 92.6275 1370.72 97.1571C1379.06 101.687 1385.49 108.12 1390.08 116.392C1394.67 124.729 1396.97 134.247 1396.97 145.013C1396.97 149.018 1396.71 152.563 1396.18 155.78L1396.12 155.845ZM1368.03 137.07C1367.9 129.915 1365.28 124.138 1360.23 119.805C1355.17 115.473 1349.01 113.306 1341.66 113.306C1334.77 113.306 1328.93 115.407 1324.2 119.608C1319.48 123.81 1316.59 129.587 1315.54 137.07H1367.97H1368.03Z" fill="white"></path>
    <path d="M1435.22 199.631C1428.07 196.349 1422.36 191.951 1418.16 186.371C1413.96 180.791 1411.67 174.62 1411.27 167.793H1439.35C1439.88 172.06 1441.98 175.605 1445.65 178.362C1449.33 181.185 1453.86 182.563 1459.3 182.563C1464.75 182.563 1468.75 181.513 1471.77 179.347C1474.79 177.18 1476.23 174.489 1476.23 171.141C1476.23 167.53 1474.39 164.839 1470.72 163.066C1467.04 161.294 1461.27 159.324 1453.26 157.158C1445 155.189 1438.31 153.088 1433.06 150.987C1427.81 148.887 1423.28 145.604 1419.47 141.206C1415.67 136.808 1413.77 130.899 1413.77 123.481C1413.77 117.376 1415.54 111.796 1419.08 106.742C1422.62 101.687 1427.68 97.6823 1434.24 94.7938C1440.8 91.8397 1448.54 90.3955 1457.46 90.3955C1470.65 90.3955 1481.15 93.6778 1488.96 100.242C1496.83 106.807 1501.1 115.735 1501.95 126.895H1475.25C1474.85 122.497 1473.01 119.017 1469.73 116.392C1466.45 113.766 1462.12 112.518 1456.68 112.518C1451.62 112.518 1447.75 113.437 1445 115.341C1442.24 117.179 1440.93 119.805 1440.93 123.153C1440.93 126.895 1442.77 129.718 1446.51 131.622C1450.25 133.525 1456.02 135.495 1463.83 137.53C1471.83 139.499 1478.39 141.6 1483.58 143.701C1488.76 145.801 1493.22 149.149 1497.03 153.548C1500.83 158.011 1502.8 163.92 1502.93 171.206C1502.93 177.574 1501.16 183.285 1497.62 188.34C1494.08 193.395 1489.02 197.334 1482.46 200.222C1475.9 203.111 1468.22 204.489 1459.43 204.489C1450.64 204.489 1442.31 202.848 1435.09 199.631H1435.22Z" fill="white"></path>
    <path d="M210.093 241.579C191.984 255.234 171.185 263.243 148.483 265.803C148.483 265.803 105.637 268.888 63.3823 246.109C92.0552 222.936 125.649 211.185 158.915 197.202C154.65 185.255 150.582 173.766 146.186 161.556C139.559 159.718 117.251 156.042 112.789 155.057C98.7478 151.84 84.7066 148.821 70.6653 145.735C68.7626 145.341 63.1854 142.584 61.9388 140.746C92.2521 116.194 121.384 96.4347 157.209 81.7299C157.537 81.5986 157.931 81.4673 158.259 81.2703L163.442 93.9401L186.21 66.8937L209.306 37.9436L135.491 35.7772L141.659 47.2654C141.659 47.2654 141.396 47.3967 141.265 47.3967C97.3699 65.909 56.6241 89.6075 22.4397 123.284C19.5527 126.107 17.1906 131.884 18.0436 135.691C21.8492 153.744 22.4397 155.648 26.114 168.186C26.3109 168.909 27.4919 170.484 28.148 170.878C38.9742 177.246 43.1078 178.493 56.4929 183.482C61.8076 185.451 73.3555 189.062 80.3105 189.981C63.776 199.106 47.7664 209.347 31.9536 220.244C20.2088 206.655 11.876 191.885 6.62693 175.342C6.62693 175.342 -3.80556 140.024 1.50911 107.792C6.75816 76.0843 22.2429 53.4362 45.2731 33.1514C75.5207 6.43322 111.345 -3.47942 151.041 1.0502C151.501 1.0502 151.894 1.18149 152.354 1.24714C173.809 2.75701 203.663 13.7856 227.218 36.3024C230.171 39.0596 235.682 46.8715 241.259 55.7995C241.85 56.5216 242.506 57.5719 243.49 59.0818C246.771 64.2679 249.724 69.5196 252.414 74.9683C255.76 81.336 258.188 86.7846 258.647 89.8044C262.321 100.308 264.683 111.271 265.274 122.693C268.226 171.928 249.527 211.907 210.093 241.711V241.579Z" fill="white"></path>
  </g>
  <defs>
    <clipPath id="clip0_20_1943">
      <rect width="1503" height="266" fill="white"></rect>
    </clipPath>
  </defs>
</svg>
