<svg xmlns="http://www.w3.org/2000/svg" xmlns:xlink="http://www.w3.org/1999/xlink" version="1.1" id="intersog-logo" x="0px" y="0px" style="enable-background:new 0 0 307.7 123.4;" xml:space="preserve" viewBox="13.34 39.1 211.06 53.8">
<style type="text/css">
	.logo{fill:#ffffff;}
</style>
<g>
	<path class="logo" d="M153.9,53.3c0-0.9,0.1-1.9,0.2-3c0.2-1,0.5-1.8,0.8-2.4c0.3-0.5,0.6-0.8,1.1-0.9c0.1,0,0.3-0.1,0.5-0.1   c0.5,0,0.9,0.2,1.1,0.5c0.2,0.3,0.3,0.8,0.3,1.5c0,0.3,0,0.7-0.1,1.1l-0.8,4.4c0,0.2-0.1,0.5-0.1,0.7c0,2.1,1.6,3.6,3.8,3.6h1l0,0   h0.5h4.2l0.2-1.2l0,0l1.5-8.8c0.1-0.4,0.1-1.1,0.1-1.9c0-2.6-1-4.6-3.1-5.9c-1.8-1.1-4.2-1.7-7.4-1.7c-1.9,0-3.7,0.2-5.3,0.7   c-1.3,0.4-2.4,0.9-3.5,1.5c-2.7,1.6-4.3,4.1-4.9,7.2l-1.2,6.4c-0.1,0.9-0.2,1.6-0.2,2.3c0,2.4,1.1,4.8,3.3,7.2   c4.6,5,6.9,9.3,6.9,13.1c0,0.9,0,1.5,0,1.8s-0.1,1-0.3,2.1s-0.4,1.9-0.7,2.4c-0.3,0.6-0.7,0.9-1.2,1.1c-0.2,0-0.3,0.1-0.5,0.1   c-0.9,0-1.4-0.6-1.4-1.8c0-0.2,0-0.5,0.1-0.7c0-0.3,0.1-0.5,0.2-0.9l0.2-1.1l0.8-4.8c0.4-2.4-1.3-4.3-3.7-4.3h-1l0,0h-3.5l0,0h-1.2   l-2.1,11.9c0,0.2,0,0.5-0.1,0.9v0.9c0,2.6,1,4.6,3.1,5.9c1.8,1.2,4.3,1.7,7.5,1.7c1.7,0,3.3-0.2,4.8-0.5c1.5-0.4,2.8-0.9,4-1.6   c2.7-1.6,4.3-4.1,4.9-7.2l0.8-4.5c0.3-1.8,0.5-3.6,0.5-5.2c0-4.1-1.6-7.8-4.9-11.1C155.5,59.4,153.9,56.2,153.9,53.3"/>
	<path class="logo" d="M196.4,46.7c0-2.6-1-4.6-3.1-5.9c-1.8-1.1-4.2-1.7-7.4-1.7c-1.7,0-3.3,0.2-4.8,0.5c-1.5,0.4-2.8,0.9-4,1.6   c-2.7,1.6-4.3,4.1-4.9,7.2l-6.2,35c-0.1,0.9-0.1,1.5-0.1,1.8c0,2.6,1,4.6,3.1,5.9c1.8,1.2,4.3,1.7,7.5,1.7c1.9,0,3.7-0.2,5.3-0.7   c1.3-0.4,2.4-0.9,3.5-1.5c2.7-1.6,4.3-4.1,4.9-7.2l6.2-34.8C196.3,48.2,196.4,47.6,196.4,46.7 M185.7,50.3l-5.5,31.4   c-0.2,1-0.4,1.8-0.7,2.2c-0.3,0.6-0.7,0.9-1.2,1.1c-0.2,0-0.3,0.1-0.5,0.1c-0.9,0-1.4-0.6-1.4-1.8c0-0.2,0-0.5,0-0.7   s0.1-0.5,0.2-0.9l5.5-31.4c0.2-1,0.5-1.8,0.8-2.4c0.3-0.5,0.6-0.8,1.1-0.9c0.1,0,0.3-0.1,0.5-0.1c0.5,0,0.9,0.2,1.1,0.5   c0.2,0.3,0.3,0.8,0.3,1.5C185.9,49.2,185.8,49.7,185.7,50.3"/>
	<path class="logo" d="M136.1,60.9c1.4-1.5,2.2-3.4,2.6-5.7l0.8-4.6c0.1-0.9,0.2-1.7,0.2-2.4c0-2.8-1-4.9-3-6.3   c-1.7-1.2-4.2-1.7-7.3-1.7h-10.8l0,0h-1.2l-7.6,42.9l0,0l0,0l-0.8,4.4c0,0.2-0.1,0.5-0.1,0.7c0,2.1,1.6,3.6,3.8,3.6h1l0,0h4.7   l0.2-1.2l0,0l4.1-22.9c1.2,0,1.9,0.2,2.4,0.7c0.4,0.5,0.6,1.1,0.6,2c0,0.8-0.1,1.8-0.4,3l-1.7,9.3c0,0-1.1,5.2-0.2,9.1h10.4l0,0   c0-0.4-0.1-0.9-0.2-1.6c-0.1-0.6-0.1-1.6-0.1-2.7c0-0.8,0-1.5,0.1-2.2c0-0.7,0.2-1.6,0.4-2.6l1.8-10.2c0.2-1.4,0.4-2.4,0.4-3.3   c0-1.9-0.5-3.3-1.5-4.2c-1-0.9-2.7-1.3-5.2-1.4c1.2,0,2.3-0.2,3.4-0.5C134,62.6,135.1,61.9,136.1,60.9 M129.3,50.8l-1.4,7.6   c-0.2,1.3-0.6,2.1-1,2.6c-0.3,0.3-0.6,0.5-1,0.6c-0.3,0.1-0.6,0.1-0.9,0.1l0,0c-0.7,0-1.1-0.5-1-1.2l2.1-11.8l0,0l0.2-1.2h1.2   c1.3,0,2,0.6,2,1.9C129.4,49.7,129.4,50.2,129.3,50.8"/>
	<path class="logo" d="M30.3,49.3L30.3,49.3l0.8-4.8c0.4-2.4-1.2-4.3-3.7-4.3H27h-0.6h-3.5l0,0h-1.2l-7.6,42.9l0,0l-0.4,2.5l-0.1,0.8   l0,0l-0.2,1c-0.4,2.4,1.3,4.3,3.7,4.3h1l0,0h4.7l0.2-1.2l0,0L30.3,49.3L30.3,49.3z"/>
	<path class="logo" d="M58.9,40.2h-0.7h-0.3h-1.2h-1.8l0,0h-0.6l-4.5,25.4c-0.1,0.6-0.2,0.5-0.2-0.1L50,43.9c0-2-1.5-3.6-3.7-3.6l0,0   h-0.1h-1h-1.3h-6.7H36l0,0h-0.1l-7.6,42.9l0,0l-0.8,4.4c-0.4,2.4,1.3,4.3,3.7,4.3h0.4l0,0h3.2l0,0l0,0c0,0,0.2,0,0.4,0h0.7l0.2-1.1   l0,0l5.7-32.1c0.1-0.6,0.2-0.6,0.2-0.1L42.1,88v0v0.1c0,2.1,1.6,3.6,3.8,3.6h0.5H47h7.2h0.1l0.2-1c0-0.1,0-0.1,0-0.2l7.3-41.3l0,0   l0.8-4.8C63,42.2,61.4,40.2,58.9,40.2"/>
	<path class="logo" d="M107.9,59.4h-1l0,0h-5.2c-0.6,0-1.1-0.5-0.9-1.2l1.7-9.5l0,0l0.2-1.2h8.9l0.2-1.2l0,0l0,0l0.3-1.9   c0.4-2.4-1.2-4.3-3.7-4.3h-0.5h-0.5H95l0,0h-1.2L86.2,83l-0.8,4.4c0,0.2-0.1,0.5-0.1,0.7c0,2.1,1.6,3.6,3.8,3.6h1h13.6l0.2-1.1l0,0   l0.9-5.1c0.1-0.6-0.3-1.2-1-1.2h-6.5c-0.7,0-1.1-0.5-1-1.2L99.1,68l0.2-1.2h8.5l0.2-1.1l0,0l0.9-5.1   C109,59.9,108.6,59.4,107.9,59.4"/>
	<path class="logo" d="M221.3,40.9c-1.8-1.1-4.2-1.7-7.4-1.7l0,0l0,0c-1.9,0-3.7,0.2-5.3,0.7c-1.3,0.4-2.4,0.9-3.5,1.5   c-2.7,1.6-4.3,4.1-4.9,7.2L194,83.4c0,0.2-0.1,0.5-0.1,0.8v0.1c0,0,0,0,0,0.1v0.1c0,0.1,0,0.2,0,0.4c0,0.1,0,0.1,0,0.2v0.1v0.2v0.1   c0,2.3,0.7,4.1,2.2,5.4s3.7,2,6.6,2l0,0h0.2c0.2,0,0.8,0,1.2,0h0.4l0,0l0,0c0.1,0,0.3,0,0.4,0c2.4,0,4.5-0.5,6.4-1.2   c0.2,0,0.9-0.4,1.4-0.7l0.5-0.3c0,0,0,0,0.1,0c2.7-1.6,4.3-4,4.8-7.2l0.2-1.1l0,0l1.3-7.6l0,0l0.8-4.8c0.4-2.4-1.3-4.3-3.7-4.3h-1   l0,0h-6l0,0H209l-1.3,7.4h0.9c0.6,0,1.1,0.5,1,1.2l-1.2,6.6c-0.1,0.6-0.3,1.6-0.5,2.2c0,0-0.1,0.2-0.2,0.5v0.1c0,0,0,0,0,0.1   c-0.1,0.1-0.1,0.3-0.2,0.4c-0.3,0.6-0.7,0.9-1.2,1.1c-0.2,0-0.3,0.1-0.5,0.1c-0.9,0-1.4-0.6-1.4-1.8c0-0.2,0-0.5,0-0.7l0,0   c0-0.2,0.1-0.5,0.2-0.9l0.2-0.9c0-0.1,0-0.2,0-0.3l5.1-29.1c0.1-0.6,0.3-1.7,0.5-2.3c0,0,0.1-0.4,0.3-0.9l0,0c0,0,0-0.1,0.1-0.1   c0-0.1,0.1-0.1,0.1-0.2l0,0c0.2-0.4,0.5-0.7,0.9-0.8c0.1,0,0.1,0,0.2-0.1l0,0c0.2,0,0.3-0.1,0.5-0.1c0.5,0,0.9,0.2,1.1,0.5   c0.2,0.3,0.3,0.8,0.3,1.5c0,0.2,0,0.4,0,0.7c0,0.1,0,0.1,0,0.2l-0.8,4.4c0,0.2-0.1,0.5-0.1,0.7c0,2.1,1.6,3.6,3.8,3.6h0.4h0.6h4.7   l0.2-1.1l0,0l0.5-2.9c0.1-0.6,0.2-1.2,0.2-1.2l0,0l0.2-0.9c0-0.1,0-0.2,0.1-0.3l0.4-2.2c0-0.1,0-0.1,0-0.2l0.2-0.9   c0-0.2,0.1-0.5,0.1-0.8c0-0.1,0-0.2,0-0.3v-0.8C224.4,44.1,223.3,42.2,221.3,40.9"/>
	<path class="logo" d="M89.4,47.6l0.2-1.2l0,0l0,0l0.3-1.9c0.4-2.4-1.2-4.3-3.7-4.3h-0.6h-0.5H67.9l0,0h-1.2l-1.3,7.4h5.7   c0.6,0,1.1,0.5,1,1.1L66,83.1l-0.8,4.4c0,0.2-0.1,0.5-0.1,0.7c0,2.1,1.6,3.6,3.8,3.6h1h4.7l0.2-1.2l0,0l7.4-41.8l0,0l0.2-1.2H89.4z   "/>
</g>
</svg>