<?xml version="1.0" encoding="UTF-8"?> <svg xmlns="http://www.w3.org/2000/svg" width="218.807" height="64.99" viewBox="0 0 218.807 64.99"><g id="Group_1225" data-name="Group 1225" transform="translate(-93.697 -150.636)"><path id="Path_26306" data-name="Path 26306" d="M149.507,207.631a2.105,2.105,0,0,0-.231-.056,1.955,1.955,0,0,0,.279-.118c.742-.382.879-.721.744-.983s-.49-.347-1.233.035a1.82,1.82,0,0,0-.2.125,2.047,2.047,0,0,0,.113-.281c.255-.8.112-1.132-.169-1.222s-.592.1-.846.9a1.73,1.73,0,0,0-.056.232,2.1,2.1,0,0,0-.118-.28c-.383-.742-.722-.879-.984-.744s-.347.49.035,1.233a1.974,1.974,0,0,0,.125.2,2.175,2.175,0,0,0-.281-.113c-.8-.255-1.132-.112-1.222.168s.1.593.9.848a1.923,1.923,0,0,0,.232.055,2.153,2.153,0,0,0-.28.118c-.741.382-.879.722-.744.983s.491.348,1.234-.034a2.208,2.208,0,0,0,.2-.125,1.9,1.9,0,0,0-.114.281c-.254.794-.112,1.132.169,1.221s.592-.1.847-.9a1.871,1.871,0,0,0,.056-.231,1.971,1.971,0,0,0,.118.279c.382.743.721.879.982.745s.349-.491-.034-1.234a1.807,1.807,0,0,0-.125-.2,2.174,2.174,0,0,0,.281.113c.8.255,1.132.112,1.222-.169s-.1-.592-.9-.847" transform="translate(-2.872 -3.023)" fill="#e9a017"></path><path id="Path_26307" data-name="Path 26307" d="M145.481,179.1c-2.458,2.257-1.455,3.477-.8,4.253,2.663-2.292,1.467-3.547.8-4.253" transform="translate(-2.787 -1.58)" fill="#e9a017"></path><path id="Path_26308" data-name="Path 26308" d="M146.429,185.488c.623.741,1.731,2.083,4.548-.5-.694-.741-1.785-1.873-4.548.5" transform="translate(-2.927 -1.855)" fill="#e9a017"></path><path id="Path_26309" data-name="Path 26309" d="M142.518,187.878c.623.741,1.731,2.083,4.548-.5-.694-.74-1.785-1.873-4.548.5" transform="translate(-2.71 -1.988)" fill="#e9a017"></path><path id="Path_26310" data-name="Path 26310" d="M148.516,176.054c-2.308,2.42-1.227,3.569-.524,4.3,2.51-2.467,1.235-3.641.524-4.3" transform="translate(-2.965 -1.411)" fill="#e9a017"></path><path id="Path_26311" data-name="Path 26311" d="M149.6,182.373c.775.807,2.154,2.272,5.213-.933-.857-.8-2.2-2.023-5.213.933" transform="translate(-3.103 -1.657)" fill="#e9a017"></path><path id="Path_26312" data-name="Path 26312" d="M151.571,173.144c-2.149,2.577-.994,3.65-.244,4.333,2.348-2.634,1-3.722.244-4.333" transform="translate(-3.144 -1.249)" fill="#e9a017"></path><path id="Path_26313" data-name="Path 26313" d="M157.123,177.985c-.786-.643-2.019-1.618-4.454,1.113.717.652,1.989,1.838,4.454-1.113" transform="translate(-3.273 -1.479)" fill="#e9a017"></path><path id="Path_26314" data-name="Path 26314" d="M157.738,171.131c-3.517,1.729-2.88,3.395-2.521,4.508,3.668-1.6,2.966-3.493,2.521-4.508" transform="translate(-3.398 -1.138)" fill="#e9a017"></path><path id="Path_26315" data-name="Path 26315" d="M136.365,189.832c4.376-1.287,10.047-6.55,12.512-8.852,2.48-2.28,4.978-4.815,5.1-4.857-.958-.361-4.681,3.123-4.706,3.1-7.32,7.109-4.673,5.63-13.863,10.177,0,0,.475.575.958.432" transform="translate(-2.315 -1.413)" fill="#e9a017"></path><path id="Path_26316" data-name="Path 26316" d="M147.571,191.817c2.969-1.095,2.356-2.53,2.017-3.336-2.786,1.131-2.323,2.476-2.017,3.336" transform="translate(-2.977 -2.1)" fill="#e9a017"></path><path id="Path_26317" data-name="Path 26317" d="M148.4,194.183c.292.822.8,2.3,4,1.01-.352-.844-.915-2.143-4-1.01" transform="translate(-3.036 -2.392)" fill="#e9a017"></path><path id="Path_26318" data-name="Path 26318" d="M153.11,186.861c-2.71,1.315-2.16,2.626-1.8,3.463,2.895-1.289,2.189-2.682,1.8-3.463" transform="translate(-3.181 -2.011)" fill="#e9a017"></path><path id="Path_26319" data-name="Path 26319" d="M156.751,193.419c-.47-.947-1.221-2.4-4.692-.856.4.926,1.1,2.6,4.692.856" transform="translate(-3.239 -2.289)" fill="#e9a017"></path><path id="Path_26320" data-name="Path 26320" d="M156.607,185.366c-2.625,1.5-1.988,2.767-1.572,3.581,2.812-1.484,2.015-2.827,1.572-3.581" transform="translate(-3.383 -1.928)" fill="#e9a017"></path><path id="Path_26321" data-name="Path 26321" d="M159.786,191.224c-.461-.791-1.193-2-4.109-.465.4.776,1.1,2.179,4.109.465" transform="translate(-3.44 -2.186)" fill="#e9a017"></path><path id="Path_26322" data-name="Path 26322" d="M162.429,185.639c-3.514.35-3.5,1.956-3.548,3.009,3.6-.2,3.6-2.012,3.548-3.009" transform="translate(-3.618 -1.943)" fill="#e9a017"></path><path id="Path_26323" data-name="Path 26323" d="M152.4,190.084c-8.417,3.693-8.455,3.6-17.643,4.537,0,0,.22.635.672.666a54.908,54.908,0,0,0,5.667-.674,59.709,59.709,0,0,0,10.418-3.17c2.811-1.143,5.718-2.494,5.834-2.491-.694-.606-4.935,1.16-4.948,1.132" transform="translate(-2.279 -2.12)" fill="#e9a017"></path><path id="Path_26324" data-name="Path 26324" d="M144.124,192.92c3.034-.9,2.514-2.368,2.231-3.194-2.851.943-2.479,2.316-2.231,3.194" transform="translate(-2.79 -2.17)" fill="#e9a017"></path><path id="Path_26325" data-name="Path 26325" d="M140.793,193.427c3.034-.9,2.514-2.368,2.231-3.194-2.851.943-2.479,2.316-2.231,3.194" transform="translate(-2.605 -2.198)" fill="#e9a017"></path><path id="Path_26326" data-name="Path 26326" d="M144.12,195.048c.237.839.65,2.351,3.917,1.272-.3-.866-.772-2.2-3.917-1.272" transform="translate(-2.799 -2.448)" fill="#e9a017"></path><path id="Path_26327" data-name="Path 26327" d="M139.34,195.845c.237.839.65,2.352,3.917,1.273-.3-.866-.772-2.2-3.917-1.273" transform="translate(-2.533 -2.492)" fill="#e9a017"></path><path id="Path_26328" data-name="Path 26328" d="M145.675,200.556c2.608-.052,2.517-1.336,2.471-2.054-2.475.129-2.477,1.3-2.471,2.054" transform="translate(-2.885 -2.657)" fill="#e9a017"></path><path id="Path_26329" data-name="Path 26329" d="M148.56,204.471c-.047-.752-.135-1.915-2.84-1.863.007.719.006,2.01,2.84,1.863" transform="translate(-2.887 -2.884)" fill="#e9a017"></path><path id="Path_26330" data-name="Path 26330" d="M151.326,198.188c-2.465.293-2.39,1.462-2.334,2.213,2.6-.225,2.428-1.5,2.334-2.213" transform="translate(-3.068 -2.639)" fill="#e9a017"></path><path id="Path_26331" data-name="Path 26331" d="M149,202.34c.062.828.159,2.32,3.424,1.932-.111-.864-.3-2.2-3.424-1.932" transform="translate(-3.069 -2.868)" fill="#e9a017"></path><path id="Path_26332" data-name="Path 26332" d="M152.262,200.327c2.59-.4,2.332-1.659,2.189-2.364-2.448.457-2.294,1.619-2.189,2.364" transform="translate(-3.248 -2.627)" fill="#e9a017"></path><path id="Path_26333" data-name="Path 26333" d="M152.3,201.911c.1.712.269,1.994,3.074,1.47-.145-.74-.389-1.88-3.074-1.47" transform="translate(-3.253 -2.841)" fill="#e9a017"></path><path id="Path_26334" data-name="Path 26334" d="M155.332,201.147c2.857.818,3.349-.6,3.575-1.387-2.831-.674-3.254.58-3.575,1.387" transform="translate(-3.421 -2.716)" fill="#e9a017"></path><path id="Path_26335" data-name="Path 26335" d="M149.851,200.737c-7.551.606-7.555.521-14.964-1.224,0,0,0,.553.344.7a44.962,44.962,0,0,0,4.595,1,49.082,49.082,0,0,0,8.968.34c2.5-.131,5.126-.4,5.215-.366-.377-.659-4.155-.427-4.158-.452" transform="translate(-2.286 -2.713)" fill="#e9a017"></path><path id="Path_26336" data-name="Path 26336" d="M142.692,200.488c2.6.121,2.6-1.166,2.6-1.886-2.475-.035-2.557,1.134-2.6,1.886" transform="translate(-2.719 -2.662)" fill="#e9a017"></path><path id="Path_26337" data-name="Path 26337" d="M141.742,198.312c-2.475-.035-2.556,1.134-2.6,1.886,2.6.12,2.6-1.166,2.6-1.886" transform="translate(-2.522 -2.646)" fill="#e9a017"></path><path id="Path_26338" data-name="Path 26338" d="M144.859,204.167c0-.755-.008-1.921-2.708-2.047-.042.718-.128,2.006,2.708,2.047" transform="translate(-2.689 -2.857)" fill="#e9a017"></path><path id="Path_26339" data-name="Path 26339" d="M138.386,201.758c-.042.718-.128,2.006,2.708,2.047,0-.755-.008-1.921-2.708-2.047" transform="translate(-2.48 -2.837)" fill="#e9a017"></path><path id="Path_26340" data-name="Path 26340" d="M124.7,158.071a3.494,3.494,0,1,0,3.495-3.495,3.5,3.5,0,0,0-3.495,3.495" transform="translate(-1.721 -0.219)" fill="#e9a017"></path><path id="Path_26341" data-name="Path 26341" d="M122.531,175.3a.213.213,0,0,0,.064.258.221.221,0,0,0,.162.043.215.215,0,0,0,.1-.044c.183-.145,6.2-.921,7.81-6.54,1.137-3.974-3.187-5.966-3.219-6a.217.217,0,0,0-.366.159,17.4,17.4,0,0,1-.219,6,12.041,12.041,0,0,1-4.337,6.121" transform="translate(-1.599 -0.684)" fill="#e9a017"></path><path id="Path_26342" data-name="Path 26342" d="M130.776,162.179a.212.212,0,0,0-.012.234,21.747,21.747,0,0,1,2.571,5.428,14.468,14.468,0,0,1,.315,6.592.213.213,0,0,0,.183.188.215.215,0,0,0,.158-.042.221.221,0,0,0,.068-.09c.085-.213,3.207-4.054,2.194-7.936-1.027-3.937-5.213-4.445-5.256-4.455a.209.209,0,0,0-.22.08" transform="translate(-2.056 -0.636)" fill="#e9a017"></path><path id="Path_26343" data-name="Path 26343" d="M132.1,161.08a.189.189,0,0,0,.086.192,14.151,14.151,0,0,1,4.613,2.951,20.585,20.585,0,0,1,3.466,5.428.191.191,0,0,0,.222.076.188.188,0,0,0,.109-.1.2.2,0,0,0,.018-.1c-.019-.2,1.465-4.232-.919-6.917-2.417-2.72-7.412-1.7-7.451-1.687a.188.188,0,0,0-.144.154" transform="translate(-2.132 -0.56)" fill="#e9a017"></path><path id="Path_26344" data-name="Path 26344" d="M133.209,159.038a15.333,15.333,0,0,1,5.234.743,12.292,12.292,0,0,1,4.983,3.489.19.19,0,0,0,.284-.17.2.2,0,0,0-.029-.1c-.11-.173-.588-4.149-3.93-5.458-3.389-1.326-6.617,1.132-6.648,1.158a.19.19,0,0,0,.106.334" transform="translate(-2.183 -0.362)" fill="#e9a017"></path><path id="Path_26345" data-name="Path 26345" d="M132.961,156.408a.181.181,0,0,0,.039.2.186.186,0,0,0,.2.042,20.8,20.8,0,0,1,5.105-1.435,11.443,11.443,0,0,1,6.007,1.045.184.184,0,0,0,.171-.273.183.183,0,0,0-.067-.07c-.171-.1-3.192-3.624-6.662-3.283a6.07,6.07,0,0,0-4.793,3.773" transform="translate(-2.178 -0.11)" fill="#e9a017"></path><path id="Path_26346" data-name="Path 26346" d="M117.273,160.521c3.554.78,5.323-2.494,5.35-2.525a.188.188,0,0,0,.026-.209.19.19,0,0,0-.181-.1,21.6,21.6,0,0,1-5.047-.356,18.5,18.5,0,0,1-5.707-2.226.191.191,0,0,0-.224.07.2.2,0,0,0-.031.144.209.209,0,0,0,.044.091c.135.153,2.265,4.347,5.771,5.116" transform="translate(-0.986 -0.247)" fill="#e9a017"></path><path id="Path_26347" data-name="Path 26347" d="M119.448,165.007a5.219,5.219,0,0,0,3.744-4.619.186.186,0,0,0-.072-.2.19.19,0,0,0-.21-.01,21.851,21.851,0,0,1-4.86,2.148,14.653,14.653,0,0,1-5.894.434.19.19,0,0,0-.129.305.185.185,0,0,0,.08.06c.19.076,3.868,2.786,7.341,1.881" transform="translate(-1.015 -0.528)" fill="#e9a017"></path><path id="Path_26348" data-name="Path 26348" d="M114.756,169.68a.185.185,0,0,0,.1.018c.2-.019,5.747,1.933,8.431-.451,2.72-2.418,1.5-7.086,1.493-7.124a.19.19,0,0,0-.346-.058,15.314,15.314,0,0,1-3.038,4.327,14.685,14.685,0,0,1-6.662,2.957.191.191,0,0,0-.076.222.189.189,0,0,0,.1.109" transform="translate(-1.163 -0.629)" fill="#e9a017"></path><path id="Path_26349" data-name="Path 26349" d="M105.492,182.034c5.855,8.731,11.734,9.426,14.628,9.106a2.316,2.316,0,0,0,1.032-.35,6.865,6.865,0,0,1-1.09-.069c-2.29-.328-6.368-1.924-10.662-8.449-5.911-9-13.462-6-14.592-5.555a13.386,13.386,0,0,1,10.683,5.318" transform="translate(-0.062 -1.401)" fill="#e9a017"></path><path id="Path_26350" data-name="Path 26350" d="M105.22,190.922c7.715,6.57,13.39,5.743,16.013,4.727a2.228,2.228,0,0,0,.875-.579,6.765,6.765,0,0,1-1.036.208c-2.226.27-6.446-.182-12.138-5.113-7.836-6.8-14.123-2.158-15.067-1.471a13.188,13.188,0,0,1,11.353,2.227" transform="translate(-0.009 -1.991)" fill="#e9a017"></path><path id="Path_26351" data-name="Path 26351" d="M106.26,198.909c9.668,5.659,12.98,1.536,15.025.337a1.879,1.879,0,0,0,.65-.6,5.623,5.623,0,0,1-.834.313,13.5,13.5,0,0,1-11.853-1.181c-7.439-4.589-12.041.115-12.733.813a11.131,11.131,0,0,1,9.745.316" transform="translate(-0.156 -2.506)" fill="#e9a017"></path><path id="Path_26352" data-name="Path 26352" d="M102.325,168.187c.48.8,2.868-.67,3.728-.3s1.452,3.108,2.364,2.9.249-2.934.864-3.639,3.4-.419,3.488-1.351-2.714-1.145-3.194-1.947.653-3.368-.207-3.735-1.928,2.227-2.84,2.436-3-1.661-3.616-.956,1.523,2.52,1.44,3.452-2.509,2.341-2.028,3.143" transform="translate(-0.475 -0.524)" fill="#e9a017"></path><path id="Path_26353" data-name="Path 26353" d="M109.438,202.42c.067-.816-1.795-1.853-3.954-1.8a5.271,5.271,0,0,0-3.467,1.182c-.474-.226-2.109-.97-2.422-.642-.168.177.964,1.153.971,1.47s-1.079,1.346-.9,1.514c.276.264,1.9-.514,2.38-.755a5.058,5.058,0,0,0,3.534,1.281c2.158-.051,3.8-1.546,3.858-2.247m-1.645-.78a.348.348,0,1,1-.339.356.348.348,0,0,1,.339-.356" transform="translate(-0.326 -2.774)" fill="#e9a017"></path><path id="Path_26354" data-name="Path 26354" d="M96.19,182.359a5.048,5.048,0,0,0,3.223,1.933c2.129.365,4.027-.789,4.218-1.464.222-.789-1.406-2.163-3.535-2.527a5.27,5.27,0,0,0-3.629.494c-.422-.313-1.884-1.356-2.255-1.094-.2.14.725,1.317.672,1.628s-1.317,1.114-1.175,1.313c.221.313,1.96-.14,2.481-.284m5.976-.612a.347.347,0,1,1-.4.284.349.349,0,0,1,.4-.284" transform="translate(0 -1.611)" fill="#e9a017"></path><path id="Path_26355" data-name="Path 26355" d="M145.928,162.276a3.16,3.16,0,1,1,.794,6.265.341.341,0,0,0-.284.257.324.324,0,0,0,.132.357,5.009,5.009,0,1,0-.933-7.428.359.359,0,0,0-.04.378.324.324,0,0,0,.331.172" transform="translate(-2.879 -0.52)" fill="#e9a017"></path><path id="Path_26356" data-name="Path 26356" d="M136.143,185.906c-.308-.2-2.146-1.244-6.736,8.366a12,12,0,0,0-.932,2.941q-.153-.436-.312-.881c-1.587-4.45-6.038-9.285-6.817-9.872-.823-.62-.9.128-.6.488.8,1.289,2.265,4.155,4.522,12.987.994,3.888,1.659,6.64,5.019,9.718,1.166,1.068,1.509.3,1.22-1.742a29.163,29.163,0,0,1,.261-10.55c2.232-10.013,4.977-11.07,4.376-11.456" transform="translate(-1.492 -1.95)" fill="#e9a017"></path><path id="Path_26357" data-name="Path 26357" d="M129.441,188.691c-.764-.377-1.683.151-2.052,1.178a2.061,2.061,0,0,0,.715,2.543c.763.376,1.682-.151,2.052-1.179a2.06,2.06,0,0,0-.715-2.542" transform="translate(-1.861 -2.105)" fill="#e9a017"></path><path id="Path_26358" data-name="Path 26358" d="M154.077,183.327c-.675.3-.468.484-.468.484s5.2-.7,6.5-2.9c1.866-3.154-.064-7.015-.064-7.015s-.233-.15-.261.222a14,14,0,0,1-1.541,6.214c-1.07,1.759-3.177,2.554-4.165,2.991" transform="translate(-3.324 -1.29)" fill="#e9a017"></path><path id="Path_26359" data-name="Path 26359" d="M101.369,193.124a13.662,13.662,0,0,1,5.985,1.866s-3.926-4.055-6.822-4.055c-6.264,0-5.341,3.54-5.341,3.54a11.991,11.991,0,0,1,6.178-1.352" transform="translate(-0.08 -2.237)" fill="#e9a017"></path><path id="Path_26360" data-name="Path 26360" d="M102.549,173.411a13.655,13.655,0,0,1,5.3,3.347s-2.747-4.93-5.545-5.677c-6.051-1.616-6.074,2.042-6.074,2.042a12,12,0,0,1,6.318.288" transform="translate(-0.141 -1.112)" fill="#e9a017"></path><path id="Path_26361" data-name="Path 26361" d="M161.066,189.957a13.611,13.611,0,0,1-3.242,5.062,8.024,8.024,0,0,1-4.465,1.437c-.726.072-.69.243-.69.243s4.816.952,6.632-.6c2.607-2.23,2.063-6.233,2.063-6.233s-.13-.288-.3.094" transform="translate(-3.273 -2.171)" fill="#e9a017"></path><path id="Path_26362" data-name="Path 26362" d="M157.039,202.9a6.573,6.573,0,0,1-2.17,1.918,3.873,3.873,0,0,1-2.259.077c-.346-.063-.351.021-.351.021s2.106,1.078,3.153.6a3.665,3.665,0,0,0,1.779-2.617s-.023-.15-.151,0" transform="translate(-3.25 -2.897)" fill="#e9a017"></path><path id="Path_26363" data-name="Path 26363" d="M131.787,154.513a.188.188,0,0,0,.2-.055,17.182,17.182,0,0,1,2.837-3.175c-.831-.167-1.676-.3-2.529-.4a6.93,6.93,0,0,0-.639,3.463.188.188,0,0,0,.129.166" transform="translate(-2.106 -0.014)" fill="#e9a017"></path><path id="Path_26364" data-name="Path 26364" d="M129.811,153.312a.189.189,0,0,0,.156-.141,18.543,18.543,0,0,1,.507-2.459q-.89-.061-1.792-.076a6.971,6.971,0,0,0,.938,2.587.187.187,0,0,0,.191.089" transform="translate(-1.942)" fill="#e9a017"></path><path id="Path_26365" data-name="Path 26365" d="M127.238,153.084a.187.187,0,0,0,.211-.008.189.189,0,0,0,.075-.2,18.723,18.723,0,0,1-.625-2.231c-.655.02-1.306.057-1.951.115a6.964,6.964,0,0,0,2.291,2.319" transform="translate(-1.734 -0.001)" fill="#e9a017"></path><path id="Path_26366" data-name="Path 26366" d="M124.983,153.967a.188.188,0,0,0,.184-.1.19.19,0,0,0-.023-.209A17.961,17.961,0,0,1,122.86,151c-.853.127-1.693.29-2.522.48a6.5,6.5,0,0,0,4.645,2.488" transform="translate(-1.479 -0.02)" fill="#e9a017"></path><path id="Path_26367" data-name="Path 26367" d="M117.087,154.967a6.249,6.249,0,0,0,6.237.743.188.188,0,0,0,.118-.175.191.191,0,0,0-.115-.176,15.347,15.347,0,0,1-4.748-2.324c-.341-.28-.653-.564-.937-.846-.724.226-1.433.484-2.135.756a6.048,6.048,0,0,0,1.579,2.022" transform="translate(-1.211 -0.086)" fill="#e9a017"></path><path id="Path_26368" data-name="Path 26368" d="M137.574,217.59a34.733,34.733,0,0,0-8.593-.9,26.22,26.22,0,0,0-8.833,1.469s-.555.252-.091.441c1.634.662,5.526.715,8.967.687,5.1-.043,6.908-1.166,8.365-1.331.666-.075.184-.366.184-.366" transform="translate(-1.453 -3.666)" fill="#e9a017"></path><path id="Path_26369" data-name="Path 26369" d="M112.067,175.852a8.572,8.572,0,0,0,5.168,2.5,16.226,16.226,0,0,0,1.5,1.607c.6.191.37-.8.261-.928a19.735,19.735,0,0,0-1.535-1.327c.074-1.276,0-4.06-1.849-5.424a12.127,12.127,0,0,0-5.252-2.077,8.728,8.728,0,0,0,1.7,5.648" transform="translate(-0.924 -1.086)" fill="#e9a017"></path><path id="Path_26370" data-name="Path 26370" d="M114.057,183.345a6.866,6.866,0,0,0,3.868.288,16.792,16.792,0,0,0,1.7,1.662c.675.184.373-.9.245-1.044-.047-.052-.631-.555-1.411-1.139a4.384,4.384,0,0,0-3.136-2.758,9.706,9.706,0,0,0-4.49-.136,7.209,7.209,0,0,0,3.226,3.126" transform="translate(-0.951 -1.631)" fill="#e9a017"></path><path id="Path_26371" data-name="Path 26371" d="M138.322,176.3a22.3,22.3,0,0,0-2.207,1.109c-.153.111-.665,1.117.033,1.071.073.073,1.356-.9,2.566-1.66a7.927,7.927,0,0,0,5.2-.158,8.29,8.29,0,0,0,3.721-4.251,10.858,10.858,0,0,0-5.651.014,4.833,4.833,0,0,0-3.665,3.875" transform="translate(-2.336 -1.189)" fill="#e9a017"></path><path id="Path_26372" data-name="Path 26372" d="M138.077,181.569a4.314,4.314,0,0,0-3.121,2.779c-1.3.514-2.766.953-2.75,1.052-.45.537.665.716.845.658a22.885,22.885,0,0,0,2.358-1.224,6.889,6.889,0,0,0,3.931-.275,7.209,7.209,0,0,0,3.226-3.126,12.238,12.238,0,0,0-4.49.136" transform="translate(-2.131 -1.701)" fill="#e9a017"></path><path id="Path_26373" data-name="Path 26373" d="M135.206,179.364a8.047,8.047,0,0,1-3.739-.55.243.243,0,0,1-.107-.178.235.235,0,0,1,.089-.2.684.684,0,0,0,.227-.712l-.1-.373a.238.238,0,0,1,.078-.247l.427-.353a.678.678,0,0,0,.219-.729l-.116-.361a.239.239,0,0,1,.033-.208l.3-.426a.675.675,0,0,0,.107-.549,3.084,3.084,0,0,1-.111-1.268.223.223,0,0,0-.292-.268,6.636,6.636,0,0,0-3.61,3.454,3.926,3.926,0,0,0-2.428.027,1.206,1.206,0,0,0-.508.537c-.031.088-.053.156-.067.211a.518.518,0,0,1-.147.274c-.019.021-.043.054-.089.111a2.378,2.378,0,0,1-.19.235.225.225,0,0,0,.05.432h.218l.585,0c.072.034.145.063.213.092a1.783,1.783,0,0,1,.813.527,5.366,5.366,0,0,0,.843.813,4.318,4.318,0,0,0,1.392.746,3.475,3.475,0,0,0,.894.147,2.124,2.124,0,0,0,.379-.043c.12-.018.322-.05.409-.053l2.8,2.01a.31.31,0,0,0,.485-.174l.179-.677.617-.323a.32.32,0,0,0,.164-.347l-.129-.552.379-.488a.318.318,0,0,0,.03-.344.314.314,0,0,0-.288-.184m-8.419-1.762a.345.345,0,1,1,.344-.347.347.347,0,0,1-.344.347" transform="translate(-1.739 -1.237)" fill="#e9a017"></path><path id="Path_26374" data-name="Path 26374" d="M122.883,179.181a2.222,2.222,0,0,0-3.086-1.864,2.223,2.223,0,0,0,3.086,1.864" transform="translate(-1.449 -1.474)" fill="#e9a017"></path><path id="Path_26375" data-name="Path 26375" d="M123.283,184.268a2.355,2.355,0,1,0-2.36-2.348,2.354,2.354,0,0,0,2.36,2.348" transform="translate(-1.511 -1.605)" fill="#e9a017"></path><path id="Path_26376" data-name="Path 26376" d="M136.039,210.284c.621-.068,1.334.467,2.661.514a6.614,6.614,0,0,0,1.8-.237,3.44,3.44,0,0,0,1.437-.95,7.06,7.06,0,0,0,1.03-1.493l-.086-.045c-1.523,1.655-4.612,1.933-5.471,1.348-.423-.207-.876-.555-1.487-.891a3.65,3.65,0,0,0-1.007-.391,3.927,3.927,0,0,0-1.088-.087,2.387,2.387,0,0,0-1.106.349,1.926,1.926,0,0,0-.746.855,2.561,2.561,0,0,0-.233.986,3.188,3.188,0,0,0,.093.945l.051.562a27.888,27.888,0,0,0-3.873-.133,22.87,22.87,0,0,0-8.1,1.769c-.748-.207-1.394-.532-1.261-1.034.291-1.13,3.44-1.758,3.44-1.758s3.289-.827,3.731-1.769c.309-.638,0-.62-.23-.555a.8.8,0,0,0-.321.162c-.361.281-1.589,1.215-1.487.369a1.554,1.554,0,0,1,.723-1.392,7.308,7.308,0,0,0,.606-.748c.211-.38.506-.978-.263-.583a3.959,3.959,0,0,0-1.588,1.5s-.842,1.591-1.342.951c-.421-.537-.358-2.383-.336-2.993.026-.167-.237-.234-.422-.111-.226.153-.454.555-.4,1.516a15.894,15.894,0,0,1-.073,2.417.883.883,0,0,1-.889.661c-.485.013-1.576-.122-1.8-.572-.442-.868,2.1-4.076,2.1-4.076s2.618-2.531,2.735-3.2c-2.648-.834-3.53,5.411-5.395,4.786s-1.238-2.289-1.761-3.526-1.151-.436-1.151-.436-.387.461.016,1.625c.228.627.987,2.225.579,2.252-4.161,0-6.238-3.145-6.156-1.909.084,1.5,2.939,2.425,2.939,2.425a7.28,7.28,0,0,1,2.7,1.48c.748.611,1.693,2.872,1.241,2.663a11.333,11.333,0,0,1-1.741-1.049c-.557-.41-1.095-.754-1.246-.854-.98-.7-1.863-.447-1.785-.256.125.355.567.532,1.3.945.46.242.76.352.749.569-.025.256-1.423.222-1.732.168-.645-.118-3.508-.258-5.084-1.159-1.252-.532-1.722.032-.869.516a8.41,8.41,0,0,0,4.763,1.515c.933.1,1.674-.065,1.738.4-.178.434-1.024.328-1.336.434-1.943.658-.681.725-.468.789,3.605.193,4.445-.718,4.445-.718,2.453.434,2.107,1.775,1.711,2.5a12.5,12.5,0,0,0-1.308,1s.049.281.687.042a55.636,55.636,0,0,1,12.7-2.713,41,41,0,0,1,13.114,1.128c.623.17.6,0,.6,0a25.883,25.883,0,0,0-7.362-2.6c-.057-.647-.25-1.931,1.322-1.9" transform="translate(-0.628 -2.856)" fill="#e9a017"></path><path id="Path_26377" data-name="Path 26377" d="M146.9,212.14c-.818.007-1.2-1.285-2.714-1.132-2.223.225.027,2.488,1.879,2.583a1.882,1.882,0,0,0,2.159-2.187s-.2.727-1.324.737" transform="translate(-2.751 -3.35)" fill="#e9a017"></path><path id="Path_26378" data-name="Path 26378" d="M137.123,207.418c1.763,1.68,5.727,1.778,4.462-.5-.974-1.749-3.1-.827-3.834-1.613-1.011-1.083-.495-1.93-.495-1.93a2.473,2.473,0,0,0-.133,4.039" transform="translate(-2.354 -2.927)" fill="#e9a017"></path><path id="Path_26379" data-name="Path 26379" d="M106.043,207.629a.1.1,0,0,1,.009.119,3.767,3.767,0,0,0-.571,1.6.1.1,0,0,0,.187.065,3.12,3.12,0,0,1,.364-.511,1.778,1.778,0,0,1,.561-.431.1.1,0,0,1,.121.024,3.789,3.789,0,0,0,.7.617,5.812,5.812,0,0,0,.783.453.1.1,0,0,0,.122-.154c-.149-.193-.29-.377-.41-.555a2.676,2.676,0,0,1-.346-.687.1.1,0,0,1,.058-.122,4.769,4.769,0,0,0,.834-.491c.188-.135.379-.3.57-.462a.1.1,0,0,0-.1-.168,5.715,5.715,0,0,1-.609.191,2.48,2.48,0,0,1-.778.069.1.1,0,0,1-.1-.093,4.491,4.491,0,0,0-.122-.883,5.16,5.16,0,0,0-.233-.71.1.1,0,0,0-.194.056,2.489,2.489,0,0,1-.264,1.319.1.1,0,0,1-.119.049,3.279,3.279,0,0,0-1.585-.135.1.1,0,0,0-.007.2,1.961,1.961,0,0,1,1.127.646" transform="translate(-0.618 -3.042)" fill="#e9a017"></path><path id="Path_26380" data-name="Path 26380" d="M181.469,177.787v12.7H185.6l.6-3.054h2.566v6.214H175.255V191.3l2.026-.676V177.787l-2.026-.81v-2.242l8.24-.136v2.378Z" transform="translate(-4.527 -1.33)" fill="#696c5e"></path><path id="Path_26381" data-name="Path 26381" d="M192.788,189.342v-7.159l-1.973-.486v-2.161l5.97-.216v9.266a3,3,0,0,0,.351,1.635,1.291,1.291,0,0,0,1.162.527,3.726,3.726,0,0,0,1.553-.366,5.11,5.11,0,0,0,1.23-.742l.405-.379v-7.078l-2-.486v-2.161l5.97-.216v11.752l2.053.54v2.107l-5.51.189-.272-1.891c-.053.054-.139.131-.255.23s-.348.275-.69.526a8.136,8.136,0,0,1-1.052.662,7.372,7.372,0,0,1-1.311.514,5.156,5.156,0,0,1-1.473.23,3.813,3.813,0,0,1-3.092-1.269,5.382,5.382,0,0,1-1.066-3.566" transform="translate(-5.39 -1.592)" fill="#696c5e"></path><path id="Path_26382" data-name="Path 26382" d="M222.005,189.569l1.351,2.3a8.609,8.609,0,0,1-5.809,2.3,6.8,6.8,0,0,1-5.173-1.946,7.519,7.519,0,0,1-1.851-5.4,7.984,7.984,0,0,1,1.959-5.7,7.151,7.151,0,0,1,5.471-2.08,11.727,11.727,0,0,1,2.215.23,13.17,13.17,0,0,1,1.864.472l.648.244-.135,4.4h-2.432l-.377-1.946a7.107,7.107,0,0,0-1.865-.215,2.842,2.842,0,0,0-2.337,1.012,4.75,4.75,0,0,0-.824,3.039,6.089,6.089,0,0,0,.851,3.513A2.884,2.884,0,0,0,218.087,191a5.346,5.346,0,0,0,1.027-.1,5.029,5.029,0,0,0,.946-.283c.306-.127.544-.234.715-.325s.406-.225.7-.405.473-.287.527-.324" transform="translate(-6.484 -1.576)" fill="#696c5e"></path><path id="Path_26383" data-name="Path 26383" d="M232.912,182.193a2.319,2.319,0,0,0-1.8.757,3.594,3.594,0,0,0-.851,2.027h4.863q0-2.782-2.216-2.783m6.268,5.215-8.969.081a3.991,3.991,0,0,0,.986,2.594,2.982,2.982,0,0,0,2.255.919,8.1,8.1,0,0,0,2.135-.311,9.229,9.229,0,0,0,1.757-.636l.649-.324,1.161,2.161q-.3.244-.837.621a11.892,11.892,0,0,1-2.162,1.013,8.635,8.635,0,0,1-3.16.635,6.842,6.842,0,0,1-5.228-1.905,7.546,7.546,0,0,1-1.8-5.389,8.2,8.2,0,0,1,1.917-5.714,6.782,6.782,0,0,1,5.3-2.12,5.951,5.951,0,0,1,4.566,1.7,6.526,6.526,0,0,1,1.593,4.647Z" transform="translate(-7.341 -1.576)" fill="#696c5e"></path><path id="Path_26384" data-name="Path 26384" d="M242.473,179.522l5.592-.216.189,1.864q.3-.244.784-.581a12.317,12.317,0,0,1,1.8-.918,5.966,5.966,0,0,1,2.391-.582,3.621,3.621,0,0,1,2.986,1.284,5.449,5.449,0,0,1,1.041,3.526v7.159q.35.108,1,.351t.891.324v2.161h-7.294v-2.161l1.433-.675V184.52a2.364,2.364,0,0,0-.5-1.554,1.643,1.643,0,0,0-1.337-.607,3.035,3.035,0,0,0-1.472.391,4.24,4.24,0,0,0-1.066.77l-.351.379v7.159l1.405.675v2.161h-7.484v-2.161l2.081-.675v-8.834l-2.081-.54Z" transform="translate(-8.257 -1.579)" fill="#696c5e"></path><path id="Path_26385" data-name="Path 26385" d="M268.268,193.94a3.251,3.251,0,0,1-3.08-1.445,10.812,10.812,0,0,1-.838-5.039V182.4h-2.512v-2.566l2.512-.351v-3.728l3.972-.73v4.458H272.1V182.4h-3.782v6.106a4.267,4.267,0,0,0,.3,1.891,1.176,1.176,0,0,0,1.135.54,4.585,4.585,0,0,0,2.135-.621l.972,1.946a8.014,8.014,0,0,1-4.592,1.675" transform="translate(-9.332 -1.354)" fill="#696c5e"></path><path id="Path_26386" data-name="Path 26386" d="M287.772,174.6h2.83a7.177,7.177,0,0,1,4.325,1.172,4.046,4.046,0,0,1,1.6,3.49,4.257,4.257,0,0,1-3.233,4.446q3.852,1.105,3.854,4.312,0,5.578-7.007,5.577h-8.487v-2.344q.673-.242,2.02-.673v-12.8l-2.02-.808v-2.238Zm0,3.179v4.582h1.563q3.018,0,3.018-2.507a1.9,1.9,0,0,0-.633-1.549,2.512,2.512,0,0,0-1.658-.526Zm1.563,7.411h-1.563v5.255h2.237a3.166,3.166,0,0,0,2.142-.647,2.236,2.236,0,0,0,.74-1.778,2.575,2.575,0,0,0-.861-2.142,4.307,4.307,0,0,0-2.695-.688" transform="translate(-10.432 -1.33)" fill="#696c5e"></path><path id="Path_26387" data-name="Path 26387" d="M300.257,179.118l6.117-.215v11.722l1.886.673v2.156h-8V191.3l2.155-.673v-8.811l-2.155-.539Zm1.643-4.661a2.337,2.337,0,0,1,.687-1.765,2.273,2.273,0,0,1,1.631-.66q2.263,0,2.263,2.425a2.368,2.368,0,0,1-.688,1.792,2.206,2.206,0,0,1-1.575.66,2.256,2.256,0,0,1-1.711-.633,2.528,2.528,0,0,1-.606-1.819" transform="translate(-11.465 -1.187)" fill="#696c5e"></path><path id="Path_26388" data-name="Path 26388" d="M317.745,179.021a6.522,6.522,0,0,1,5.026,1.9,7.605,7.605,0,0,1,1.765,5.376,8.062,8.062,0,0,1-1.954,5.713,6.81,6.81,0,0,1-5.241,2.1q-6.87,0-6.87-7.411a7.785,7.785,0,0,1,1.966-5.645,7.04,7.04,0,0,1,5.308-2.034m-.134,3.1a2.577,2.577,0,0,0-2.25,1,6.171,6.171,0,0,0-.714,3.45,6.51,6.51,0,0,0,.673,3.381,2.361,2.361,0,0,0,2.155,1.064,2.438,2.438,0,0,0,2.183-1.051,6.633,6.633,0,0,0,.7-3.53,6.292,6.292,0,0,0-.66-3.247,2.277,2.277,0,0,0-2.088-1.064" transform="translate(-12.031 -1.575)" fill="#696c5e"></path></g></svg> 