<?xml version="1.0"?>
<svg version="1.1" xmlns="http://www.w3.org/2000/svg" xmlns:xlink="http://www.w3.org/1999/xlink" width="450" height="250">
    <desc iVinci="yes" version="4.6" gridStep="20" showGrid="no" snapToGrid="no" codePlatform="0"/>
    <g id="Layer1" name="Layer 1" opacity="1">
        <g id="Shape1">
            <desc shapeID="1" type="0" basicInfo-basicType="0" basicInfo-roundedRectRadius="12" basicInfo-polygonSides="6" basicInfo-starPoints="5" bounding="rect(-144.005,-26.585,288.01,53.17)" text="" font-familyName="" font-pixelSize="20" font-bold="0" font-underline="0" font-alignment="1" strokeStyle="0" markerStart="0" markerEnd="0" shadowEnabled="0" shadowOffsetX="0" shadowOffsetY="2" shadowBlur="4" shadowOpacity="160" blurEnabled="0" blurRadius="4" transform="matrix(1,0,0,1,145.005,215.947)" pers-center="0,0" pers-size="0,0" pers-start="0,0" pers-end="0,0" locked="0" mesh="" flag=""/>
            <path id="shapePath1" d="M1,201.172 C1,200.752 1.18001,200.572 1.60001,200.572 L5.06,200.572 C5.48001,200.572 5.66,200.752 5.66,201.172 L5.66,204.452 C6.91,202.062 10.19,199.982 13.47,199.982 C17.59,199.982 19.67,201.592 20.99,204.812 C22.66,202.012 25.82,199.982 29.34,199.982 C34.89,199.982 37.39,202.902 37.39,209.162 L37.39,229.912 C37.39,230.332 37.21,230.512 36.79,230.512 L33.33,230.512 C32.91,230.512 32.73,230.332 32.73,229.912 L32.73,209.992 C32.73,206.172 30.94,204.382 27.9,204.382 C24.14,204.382 21.52,208.382 21.52,214.762 L21.52,229.912 C21.52,230.332 21.34,230.512 20.93,230.512 L17.47,230.512 C17.05,230.512 16.87,230.332 16.87,229.912 L16.87,209.992 C16.87,206.172 15.08,204.382 12.04,204.382 C8.28,204.382 5.66,208.382 5.66,214.762 L5.66,229.912 C5.66,230.332 5.48001,230.512 5.06,230.512 L1.60001,230.512 C1.18001,230.512 1,230.332 1,229.912 L1,201.172 M51.07,195.092 C51.07,195.512 51.25,195.682 51.67,195.682 L56.8,195.682 C57.22,195.682 57.39,195.502 57.39,195.092 L57.39,189.962 C57.39,189.542 57.21,189.362 56.8,189.362 L51.67,189.362 C51.25,189.362 51.07,189.542 51.07,189.962 L51.07,195.092 M45.22,204.272 C45.22,204.692 45.4,204.862 45.82,204.862 L52.26,204.862 L52.26,226.092 L44.33,226.092 C43.91,226.092 43.73,226.272 43.73,226.692 L43.73,229.912 C43.73,230.332 43.91,230.512 44.33,230.512 L65.15,230.512 C65.57,230.512 65.74,230.332 65.74,229.912 L65.74,226.692 C65.74,226.272 65.56,226.092 65.15,226.092 L56.92,226.092 L56.92,201.162 C56.92,200.742 56.74,200.562 56.32,200.562 L45.82,200.562 C45.4,200.562 45.22,200.742 45.22,201.162 L45.22,204.272 M82.49,231.112 C88.87,231.112 94.12,227.592 94.12,221.752 C94.12,216.082 89.47,214.472 83.74,213.522 C77.6,212.512 76.23,210.782 76.23,208.512 C76.23,205.702 78.97,204.392 82.08,204.392 C85.42,204.392 87.87,205.582 88.58,208.562 C88.7,208.982 88.76,209.162 89.17,209.162 L92.51,209.162 C92.93,209.162 93.1,208.922 93.1,208.562 C93.1,203.432 88.69,199.972 82.01,199.972 C76.88,199.972 71.57,202.772 71.57,208.502 C71.57,213.752 74.31,216.192 80.87,217.332 C85.58,218.162 89.22,218.762 89.22,222.342 C89.22,225.262 85.94,226.692 82.66,226.692 C78.78,226.692 76.34,224.842 75.86,221.382 C75.8,220.962 75.68,220.782 75.27,220.782 L71.45,220.782 C71.03,220.782 70.85,221.022 70.85,221.382 C70.86,227.002 75.57,231.112 82.49,231.112 M99.34,200.572 C98.92,200.572 98.74,200.752 98.74,201.172 L98.74,204.392 C98.74,204.812 98.92,204.992 99.34,204.992 L104.71,204.992 L104.71,219.002 C104.71,227.052 108.47,231.112 115.21,231.112 C122.19,231.112 125.71,226.102 125.71,220.552 C125.71,220.012 125.53,220.012 125.17,220.012 L121.71,220.012 C121.41,220.012 121.11,220.072 121.05,220.552 C120.51,224.552 119.08,226.692 115.2,226.692 C111.56,226.692 109.35,224.192 109.35,218.942 L109.35,204.982 L120.74,204.982 C121.16,204.982 121.34,204.802 121.34,204.382 L121.34,201.162 C121.34,200.742 121.16,200.562 120.74,200.562 L109.35,200.562 L109.35,191.972 C109.35,191.552 109.17,191.372 108.76,191.372 L105.3,191.372 C104.88,191.372 104.7,191.552 104.7,191.972 L104.7,200.562 L99.34,200.562 L99.34,200.572 M196.35,201.472 C196.41,201.232 196.41,201.112 196.41,200.992 C196.41,200.692 196.17,200.572 195.93,200.572 L191.82,200.572 C191.22,200.572 191.1,200.752 190.98,201.172 L185.55,224.192 L180.12,203.082 C180,202.662 179.94,202.482 179.47,202.482 L174.94,202.482 C174.46,202.482 174.4,202.662 174.28,203.082 L168.85,224.192 L163.42,201.172 C163.3,200.752 163.18,200.572 162.59,200.572 L158.47,200.572 C158.23,200.572 157.99,200.692 157.99,200.992 C157.99,201.112 157.99,201.232 158.05,201.472 L165.86,229.922 C165.98,230.402 166.28,230.522 166.64,230.522 L170.87,230.522 C171.29,230.522 171.52,230.342 171.64,229.922 L177.19,209.232 L182.74,229.922 C182.86,230.342 183.1,230.522 183.51,230.522 L187.75,230.522 C188.11,230.522 188.41,230.402 188.53,229.922 L196.35,201.472 M205.48,212.562 C206.43,207.492 210.01,204.392 214.48,204.392 C218.78,204.392 222.29,207.672 223.25,212.562 L205.48,212.562 M227.67,216.982 C228.09,216.982 228.26,216.802 228.26,216.382 L228.26,215.552 C228.26,207.262 223.55,199.982 214.48,199.982 C205.89,199.982 200.23,206.782 200.23,215.552 C200.23,224.322 205.18,231.122 214.48,231.122 C221.1,231.122 225.51,227.962 227.66,221.692 C227.78,221.332 227.78,221.212 227.78,221.102 C227.78,220.862 227.66,220.682 227.36,220.682 L223.48,220.682 C223.06,220.682 222.83,220.742 222.65,221.222 C221.22,224.982 218.77,226.712 214.48,226.712 C208.69,226.712 205.71,222.592 205.23,216.992 L227.67,216.992 L227.67,216.982 M245.79,231.112 C252.17,231.112 257.42,227.592 257.42,221.752 C257.42,216.082 252.77,214.472 247.04,213.522 C240.9,212.512 239.53,210.782 239.53,208.512 C239.53,205.702 242.27,204.392 245.38,204.392 C248.72,204.392 251.17,205.582 251.88,208.562 C252,208.982 252.06,209.162 252.47,209.162 L255.81,209.162 C256.23,209.162 256.4,208.922 256.4,208.562 C256.4,203.432 251.99,199.972 245.31,199.972 C240.18,199.972 234.87,202.772 234.87,208.502 C234.87,213.752 237.61,216.192 244.17,217.332 C248.88,218.162 252.52,218.762 252.52,222.342 C252.52,225.262 249.24,226.692 245.96,226.692 C242.08,226.692 239.64,224.842 239.16,221.382 C239.1,220.962 238.98,220.782 238.57,220.782 L234.75,220.782 C234.33,220.782 234.15,221.022 234.15,221.382 C234.16,227.002 238.87,231.112 245.79,231.112 M262.64,200.572 C262.22,200.572 262.04,200.752 262.04,201.172 L262.04,204.392 C262.04,204.812 262.22,204.992 262.64,204.992 L268.01,204.992 L268.01,219.002 C268.01,227.052 271.77,231.112 278.51,231.112 C285.49,231.112 289.01,226.102 289.01,220.552 C289.01,220.012 288.83,220.012 288.47,220.012 L285.01,220.012 C284.71,220.012 284.41,220.072 284.35,220.552 C283.81,224.552 282.38,226.692 278.5,226.692 C274.86,226.692 272.65,224.192 272.65,218.942 L272.65,204.982 L284.04,204.982 C284.46,204.982 284.64,204.802 284.64,204.382 L284.64,201.162 C284.64,200.742 284.46,200.562 284.04,200.562 L272.65,200.562 L272.65,191.972 C272.65,191.552 272.47,191.372 272.06,191.372 L268.6,191.372 C268.18,191.372 268,191.552 268,191.972 L268,200.562 L262.64,200.562 L262.64,200.572 M143.02,233.442 L153.58,201.412 C153.64,201.232 153.64,201.112 153.64,200.992 C153.64,200.692 153.46,200.572 153.16,200.572 L149.04,200.572 C148.5,200.572 148.38,200.752 148.26,201.172 L141.22,223.892 L133.82,201.172 C133.7,200.752 133.52,200.572 133.05,200.572 L128.75,200.572 C128.45,200.572 128.27,200.752 128.27,201.052 C128.27,201.232 128.33,201.352 128.39,201.532 L138.89,230.632 C137.45,235.942 136.23,237.332 132.23,237.872 C131.75,237.932 131.69,238.232 131.69,238.532 L131.69,241.992 C131.69,242.352 131.69,242.532 132.23,242.532 C135.73,242.532 139.84,240.982 141.96,236.222 C142.33,235.382 142.68,234.462 143.02,233.442 Z" style="stroke:none;fill-rule:nonzero;fill:#ffffff;fill-opacity:1;"/>
        </g>
        <g id="Shape2">
            <desc shapeID="2" type="0" basicInfo-basicType="0" basicInfo-roundedRectRadius="12" basicInfo-polygonSides="6" basicInfo-starPoints="5" bounding="rect(-104.866,-73.8,209.732,147.6)" text="" font-familyName="" font-pixelSize="20" font-bold="0" font-underline="0" font-alignment="1" strokeStyle="0" markerStart="0" markerEnd="0" shadowEnabled="0" shadowOffsetX="0" shadowOffsetY="2" shadowBlur="4" shadowOpacity="160" blurEnabled="0" blurRadius="4" transform="matrix(1,0,0,1,106.185,74.8023)" pers-center="0,0" pers-size="0,0" pers-start="0,0" pers-end="0,0" locked="0" mesh="" flag=""/>
            <path id="shapePath2" d="M3.82001,148.602 C3.79001,148.602 3.77,148.602 3.74001,148.602 C2.36,148.562 1.28,147.402 1.32001,146.022 L5.3,19.3623 C5.3,9.27233 13.57,1.00233 23.74,1.00233 C30.15,1.00233 36,4.25233 39.4,9.70233 L119.47,137.252 C121.95,141.232 126.22,143.602 130.89,143.602 C138.3,143.602 144.33,137.572 144.33,130.162 L147.82,19.3623 C147.82,9.27233 156.09,1.00233 166.26,1.00233 C172.67,1.00233 178.52,4.25233 181.92,9.70233 L210.67,55.5023 C211.4,56.6723 211.05,58.2123 209.88,58.9523 C208.71,59.6823 207.17,59.3323 206.43,58.1623 L177.67,12.3523 C175.19,8.37233 170.92,6.00233 166.25,6.00233 C158.84,6.00233 152.81,12.0323 152.81,19.4423 L149.32,130.242 C149.32,140.332 141.05,148.602 130.88,148.602 C124.47,148.602 118.62,145.352 115.22,139.902 L35.16,12.3523 C32.68,8.37233 28.41,6.00233 23.74,6.00233 C16.33,6.00233 10.3,12.0323 10.3,19.4423 L6.32001,146.182 C6.28,147.532 5.17,148.602 3.82001,148.602 Z" style="stroke:none;fill-rule:nonzero;fill:#ffffff;fill-opacity:1;"/>
        </g>
        <g id="Shape3">
            <desc shapeID="3" type="0" basicInfo-basicType="0" basicInfo-roundedRectRadius="12" basicInfo-polygonSides="6" basicInfo-starPoints="5" bounding="rect(-104.941,-73.8012,209.882,147.602)" text="" font-familyName="" font-pixelSize="20" font-bold="0" font-underline="0" font-alignment="1" strokeStyle="0" markerStart="0" markerEnd="0" shadowEnabled="0" shadowOffsetX="0" shadowOffsetY="2" shadowBlur="4" shadowOpacity="160" blurEnabled="0" blurRadius="4" transform="matrix(1,0,0,1,333.39,74.8012)" pers-center="0,0" pers-size="0,0" pers-start="0,0" pers-end="0,0" locked="0" mesh="" flag=""/>
            <path id="shapePath3" d="M415.9,148.602 C409.49,148.602 403.64,145.352 400.24,139.902 L320.18,12.3523 C317.7,8.37233 313.43,6.00233 308.76,6.00233 C301.35,6.00233 295.32,12.0323 295.32,19.4423 L291.84,130.202 C291.82,140.352 283.55,148.602 273.4,148.602 C266.99,148.602 261.14,145.352 257.74,139.902 L228.83,93.8523 C228.1,92.6823 228.45,91.1423 229.62,90.4023 C230.79,89.6723 232.33,90.0223 233.07,91.1923 L261.98,137.252 C264.46,141.232 268.73,143.602 273.4,143.602 C280.81,143.602 286.84,137.572 286.84,130.162 L289.25,130.162 L286.84,130.082 L290.32,19.3623 C290.32,9.27233 298.59,1.00233 308.76,1.00233 C315.17,1.00233 321.02,4.25233 324.42,9.70233 L404.49,137.252 C406.97,141.232 411.24,143.602 415.91,143.602 C423.32,143.602 429.35,137.572 429.35,130.162 L433.33,3.42233 C433.37,2.04233 434.57,0.942329 435.91,1.00233 C437.29,1.04233 438.37,2.20233 438.33,3.58233 L434.35,130.242 C434.34,140.332 426.07,148.602 415.9,148.602 Z" style="stroke:none;fill-rule:nonzero;fill:#ffffff;fill-opacity:1;"/>
        </g>
    </g>
</svg>
