<?xml version="1.0" encoding="utf-8"?>
<!-- Generator: Adobe Illustrator 25.0.0, SVG Export Plug-In . SVG Version: 6.00 Build 0)  -->
<svg version="1.1" id="WORKING" xmlns="http://www.w3.org/2000/svg" xmlns:xlink="http://www.w3.org/1999/xlink" x="0px" y="0px"
	 viewBox="0 0 616.8 76.7" style="enable-background:new 0 0 616.8 76.7;" xml:space="preserve">
<style type="text/css">
	.st0{fill:url(#SVGID_1_);}
	.st1{fill:#FFFFFF;}
</style>
<linearGradient id="SVGID_1_" gradientUnits="userSpaceOnUse" x1="397.88" y1="4.4007" x2="397.88" y2="74.3291" gradientTransform="matrix(1 0 0 -1 0 78)">
	<stop  offset="0.2" style="stop-color:#FF8E00"/>
	<stop  offset="1" style="stop-color:#FF0023"/>
</linearGradient>
<polygon class="st0" points="412.6,34.4 408.9,40.7 402.5,29.3 407,21.5 397.9,0 397.9,7.3 381.3,35.9 391,48.2 380.5,44.3 
	375,53.7 397.9,76.7 420.8,53.7 "/>
<g>
	<path class="st1" d="M84.5,54.8H68.7v17.9H57.2v-46h11.5v17h15.8v-17h11.5v46H84.5V54.8z"/>
	<path class="st1" d="M113.8,49.5c0-13.9,9.8-23.6,24-23.6s24,9.7,24,23.6c0,14.4-11.2,23.9-24,23.9S113.8,63.9,113.8,49.5z
		 M150,49.5c0-6.9-5.1-12.2-12.1-12.2c-7.1,0-12.1,5.4-12.1,12.2c0,7,5.1,12.5,12.1,12.5C144.9,62,150,56.5,150,49.5z"/>
	<path class="st1" d="M179.7,26.6h26.4v10.6h-14.9v6.9h13.3v10.6h-13.3v7.5h14.9v10.6h-26.4V26.6z"/>
	<path class="st1" d="M240.1,49.5v23.2h-11V24.4l27.6,25.3V26.6h11.1v48.2L240.1,49.5z"/>
	<path class="st1" d="M290.7,26.6h11.5v46h-11.5V26.6z"/>
	<polygon class="st1" points="360,26.6 346.8,26.6 340.3,39.8 333.7,26.6 320.6,26.6 333.7,49.6 320.6,72.7 333.7,72.7 340.3,59.4 
		346.8,72.7 360,72.7 346.8,49.6 	"/>
	<path class="st1" d="M18.9,26.6H4.7l0,0H0l4.7,11.1v35h11.5v-9.3h2.7c13.6,0,18.9-9.1,18.9-18.4C37.8,35.7,32.2,26.6,18.9,26.6z
		 M18.5,52.2h-2.3V37.8h2.3c5.1,0,7.5,3.2,7.5,7.2C26,48.9,23.7,52.2,18.5,52.2z"/>
</g>
<g>
	<path class="st1" d="M587.6,61.8h11.6c2.9,0,4.5-0.4,4.5-2c0-1.4-1.6-2.7-3.5-4l-7.2-4.8c-4.2-2.8-6-6.6-6-11.3c0-8.5,6-13,15.7-13
		h14l-6.3,10.9h-7c-2.9,0-4.5,0.5-4.5,2c0,1.4,1.6,2.7,3.5,4l7.1,4.8c4.1,2.8,6,6.6,6,11.3c0,8.4-6,13-15.7,13h-18.6L587.6,61.8z"/>
	<path class="st1" d="M535.5,26.6h15.6c9.6,0,16.4,4.8,16.4,13.6c0,4.2-1.9,6.9-5,8.7c3.7,1.9,6,5.1,6,9.8c0,9-6.9,14-16.5,14h-16.5
		L535.5,26.6L535.5,26.6z M550.8,45c3.3,0,5.3-1.8,5.3-4.5s-2.1-4.5-5.3-4.5h-3.9v9H550.8z M551.6,63.3c3.5,0,5.8-2,5.8-5.1
		c0-3.2-2.2-5.1-5.8-5.1h-4.6v10.2C546.9,63.3,551.6,63.3,551.6,63.3z"/>
	<path class="st1" d="M499.9,24.4l-22.6,48.3h12l1.9-4.5h0l0.7-1.6h15.7l2.7,6.1h12.2L499.9,24.4z M495.1,58.8l0.1-0.3l0,0l4.2-10
		l4.6,10.4C504.1,58.8,495.1,58.8,495.1,58.8z"/>
	<polygon class="st1" points="450.7,61.5 450.7,26.6 439.2,26.6 434.5,26.6 439.2,37.7 439.2,72.7 464.5,72.7 464.5,61.5 	"/>
</g>
</svg>
