<?xml version="1.0" encoding="utf-8"?>
<!-- Generator: Adobe Illustrator 15.1.0, SVG Export Plug-In  -->
<!DOCTYPE svg PUBLIC "-//W3C//DTD SVG 1.1//EN" "http://www.w3.org/Graphics/SVG/1.1/DTD/svg11.dtd" [
	<!ENTITY ns_flows "http://ns.adobe.com/Flows/1.0/">
]>
<svg version="1.1"
	 xmlns="http://www.w3.org/2000/svg" xmlns:xlink="http://www.w3.org/1999/xlink" xmlns:a="http://ns.adobe.com/AdobeSVGViewerExtensions/3.0/"
	 x="0px" y="0px" width="460px" height="37px" viewBox="-0.5 -0.5 460 37"
	 overflow="visible" enable-background="new -0.5 -0.5 460 37" xml:space="preserve">
<defs>
</defs>
<path fill="#335687" d="M55.713,5.996h8.355c2.453,0,3.629,0.168,4.668,0.571c2.721,1.04,4.432,3.492,4.432,6.982
	c0,2.551-1.208,5.338-3.592,6.547v0.066c0,0,0.336,0.438,0.906,1.443l4.667,8.393h-6.546l-4.263-8.09h-2.752v8.09h-5.876V5.996z
	 M64.139,16.873c1.879,0,3.055-1.041,3.055-2.955c0-1.812-0.672-2.887-3.625-2.887h-1.979v5.841H64.139z"/>
<path fill="#335687" d="M79.44,5.996h15.038v5.036h-9.164v4.363h7.317v5.037h-7.317v4.531h9.633v5.035H79.44V5.996z"/>
<path fill="#335687" d="M102.329,22.512c0,0,2.719,2.484,5.739,2.484c1.209,0,2.52-0.471,2.52-1.914
	c0-2.854-10.81-2.752-10.81-10.137c0-4.432,3.727-7.351,8.492-7.351c5.171,0,7.721,2.718,7.721,2.718l-2.484,4.801
	c0,0-2.416-2.115-5.303-2.115c-1.21,0-2.552,0.537-2.552,1.879c0,3.021,10.81,2.484,10.81,10.072c0,3.994-3.055,7.451-8.46,7.451
	c-5.641,0-8.761-3.424-8.761-3.424L102.329,22.512z"/>
<path fill="#335687" d="M121.758,5.996h9.97c4.667,0,7.821,3.424,7.821,8.259c0,4.833-3.154,8.326-7.821,8.326h-4.095v7.418h-5.875
	V5.996z M130.521,17.543c2.045,0,3.053-1.375,3.053-3.289c0-1.915-1.008-3.223-2.954-3.223h-2.987v6.512H130.521z"/>
<path fill="#335687" d="M155.727,5.594c7.251,0,12.556,5.371,12.556,12.252c0,7.051-5.305,12.555-12.556,12.555
	c-7.253,0-12.556-5.504-12.556-12.555C143.171,10.964,148.474,5.594,155.727,5.594z M155.727,25.029
	c3.592,0,6.479-3.088,6.479-7.184c0-3.928-2.887-6.881-6.479-6.881c-3.593,0-6.481,2.954-6.481,6.881
	C149.245,21.941,152.134,25.029,155.727,25.029z"/>
<path fill="#335687" d="M172.972,5.996h5.942l6.646,11.213c0.94,1.577,2.014,4.094,2.014,4.094h0.068c0,0-0.268-2.584-0.268-4.094
	V5.996h5.874v24.002h-5.908l-6.68-11.178c-0.942-1.578-2.016-4.096-2.016-4.096h-0.066c0,0,0.27,2.584,0.27,4.096v11.178h-5.876
	V5.996z"/>
<path fill="#335687" d="M201.163,22.512c0,0,2.717,2.484,5.74,2.484c1.209,0,2.517-0.471,2.517-1.914
	c0-2.854-10.809-2.752-10.809-10.137c0-4.432,3.726-7.351,8.492-7.351c5.17,0,7.722,2.718,7.722,2.718l-2.485,4.801
	c0,0-2.416-2.115-5.303-2.115c-1.208,0-2.55,0.537-2.55,1.879c0,3.021,10.809,2.484,10.809,10.072c0,3.994-3.056,7.451-8.46,7.451
	c-5.641,0-8.762-3.424-8.762-3.424L201.163,22.512z"/>
<path fill="#335687" d="M220.493,5.996h15.038v5.036h-9.164v4.363h7.317v5.037h-7.317v4.531H236v5.035h-15.507V5.996z"/>
<path fill="#F3B11B" d="M247.991,6.033h8.182c3.783,0,6.477,2.285,6.477,6.035c0,2.488-1.193,4.294-3.034,5.215v0.068
	c2.453,0.682,4.022,3.033,4.022,5.932c0,4.26-3.169,6.715-7.19,6.715h-8.456V6.033z M256.173,16.431
	c2.421,0,4.057-1.705,4.057-4.193c0-2.455-1.534-4.09-4.09-4.09h-5.796v8.283H256.173z M256.479,27.885
	c2.899,0,4.706-1.808,4.706-4.67c0-2.863-1.943-4.739-4.737-4.739h-6.104v9.409H256.479z"/>
<path fill="#F3B11B" d="M270.429,6.033h2.353v23.965h-2.353V6.033z"/>
<path fill="#F3B11B" d="M291.398,5.625c6.783,0,12.203,5.352,12.203,12.238c0,7.022-5.42,12.543-12.203,12.543
	s-12.205-5.521-12.205-12.543C279.193,10.977,284.615,5.625,291.398,5.625z M291.398,28.225c5.384,0,9.748-4.498,9.748-10.362
	c0-5.726-4.364-10.057-9.748-10.057c-5.422,0-9.751,4.331-9.751,10.057C281.647,23.727,285.977,28.225,291.398,28.225z"/>
<path fill="#F3B11B" d="M311.038,6.033h2.454l6.273,14.08c0.545,1.227,1.158,2.932,1.158,2.932h0.068c0,0,0.648-1.705,1.192-2.932
	l6.272-14.08h2.42l1.91,23.965h-2.354l-1.328-16.772c-0.104-1.294-0.069-3.339-0.069-3.339h-0.066c0,0-0.717,2.113-1.263,3.339
	l-5.625,12.307h-2.215l-5.625-12.307c-0.544-1.193-1.294-3.408-1.294-3.408h-0.068c0,0,0.035,2.113-0.068,3.408l-1.328,16.772
	h-2.354L311.038,6.033z"/>
<path fill="#F3B11B" d="M340.194,6.033h13.5v2.115h-11.148v8.727h9.101v2.114h-9.101v8.896h11.761v2.113h-14.112V6.033z"/>
<path fill="#F3B11B" d="M360.088,6.033h7.739c7.192,0,12.032,4.398,12.032,11.965c0,7.637-4.84,12-12.032,12h-7.739V6.033z
	 M367.589,27.885c5.896,0,9.816-3.477,9.816-9.887c0-6.374-3.954-9.85-9.816-9.85h-5.15v19.737H367.589z"/>
<path fill="#F3B11B" d="M386.55,6.033h2.351v23.965h-2.351V6.033z"/>
<path fill="#F3B11B" d="M407.45,5.625c5.727,0,8.624,3.102,8.624,3.102l-1.261,1.738c0,0-2.796-2.658-7.294-2.658
	c-5.625,0-9.648,4.364-9.648,10.022c0,5.727,4.023,10.396,9.717,10.396c4.838,0,7.771-3.203,7.771-3.203l1.361,1.67
	c0,0-3.271,3.715-9.168,3.715c-7.091,0-12.137-5.555-12.137-12.543C395.416,10.908,400.598,5.625,407.45,5.625z"/>
<path fill="#F3B11B" d="M435.239,22.361h-9.646l-2.728,7.637h-2.489l8.797-23.965h2.521l8.796,23.965h-2.488L435.239,22.361z
	 M430.398,8.523c0,0-0.511,1.977-0.919,3.102l-3.205,8.692h8.251l-3.138-8.692c-0.408-1.125-0.919-3.102-0.919-3.102H430.398z"/>
<path fill="#F3B11B" d="M445.582,6.033h2.351v21.852h11.114v2.113h-13.465V6.033z"/>
<path fill="#335687" d="M23.146,3.439c0,1.888-1.538,3.426-3.436,3.426s-3.432-1.538-3.432-3.426C16.268,1.541,17.816,0,19.71,0
	C21.607,0,23.146,1.541,23.146,3.439z M16.278,32.564c0,1.898,1.538,3.436,3.432,3.436c1.901,0,3.436-1.533,3.436-3.44
	c0-1.888-1.534-3.425-3.436-3.425C17.816,29.135,16.278,30.672,16.278,32.564z M23.566,25.283c0,1.895,1.529,3.43,3.425,3.43
	c1.905,0,3.438-1.535,3.438-3.43c0-1.898-1.533-3.432-3.438-3.432C25.096,21.852,23.566,23.385,23.566,25.283z M30.847,17.998
	c0,1.898,1.53,3.432,3.434,3.436c1.896,0,3.431-1.537,3.431-3.436c0-1.894-1.535-3.43-3.431-3.43
	C32.377,14.568,30.847,16.104,30.847,17.998z M26.991,7.288c-1.896,0-3.425,1.534-3.425,3.427c0,1.9,1.529,3.439,3.425,3.439
	c1.905,0,3.438-1.539,3.438-3.439C30.43,8.821,28.896,7.288,26.991,7.288z"/>
<path fill="#F3B11B" d="M5.145,25.7C2.305,25.7,0,27.998,0,30.848C0,33.693,2.305,36,5.145,36c2.855,0,5.154-2.303,5.154-5.152
	c0-4.256,3.449-7.701,7.699-7.701c2.848,0,5.147-2.301,5.147-5.148c0-2.84-2.3-5.151-5.147-5.151c-4.243,0-7.695-3.438-7.699-7.695
	C10.299,2.303,8,0,5.145,0C2.305,0,0,2.303,0,5.152c0,2.841,2.3,5.142,5.145,5.142c4.257,0.002,7.705,3.45,7.705,7.704
	C12.85,22.25,9.401,25.7,5.145,25.7z"/>
</svg>
