<svg width="170" height="32" viewBox="0 0 170 32" fill="none" xmlns="http://www.w3.org/2000/svg">
<g clip-path="url(#clip0_1564_2158)">
<g clip-path="url(#clip1_1564_2158)">
<path d="M4.38219 4.66286C4.45154 4.40404 4.6537 4.20188 4.91252 4.13253L12.1053 2.20524C12.3641 2.13589 12.6402 2.20989 12.8297 2.39936L18.0952 7.66481C18.2846 7.85428 18.3586 8.13044 18.2893 8.38926L16.2499 16.0003L8.63892 18.0396C8.3801 18.109 8.10394 18.035 7.91447 17.8455L2.64902 12.58C2.45955 12.3906 2.38555 12.1144 2.4549 11.8556L4.38219 4.66286Z" fill="#FFAD0A"/>
<path d="M16.2504 16.0005L23.8614 13.9611C24.1202 13.8918 24.3964 13.9658 24.5858 14.1552L29.8513 19.4207C30.0407 19.6102 30.1147 19.8863 30.0454 20.1451L28.1181 27.3379C28.0488 27.5967 27.8466 27.7988 27.5878 27.8682L20.395 29.7955C20.1362 29.8648 19.8601 29.7908 19.6706 29.6014L14.4051 24.3359C14.2157 24.1465 14.1417 23.8703 14.211 23.6115L16.2504 16.0005Z" fill="#FFAD0A"/>
<path d="M16.2499 16.0005L18.2893 23.6115C18.3586 23.8703 18.2846 24.1465 18.0951 24.3359L12.8297 29.6014C12.6402 29.7909 12.3641 29.8649 12.1052 29.7955L4.9125 27.8682C4.65368 27.7989 4.45152 27.5967 4.38217 27.3379L2.45488 20.1452C2.38553 19.8863 2.45952 19.6102 2.64899 19.4207L7.91445 14.1553C8.10392 13.9658 8.38007 13.8918 8.63889 13.9611L16.2499 16.0005Z" fill="white"/>
<path d="M27.5877 4.13256C27.8466 4.20191 28.0487 4.40407 28.1181 4.66289L30.0454 11.8556C30.1147 12.1145 30.0407 12.3906 29.8513 12.5801L24.5858 17.8455C24.3963 18.035 24.1202 18.109 23.8614 18.0396L16.2504 16.0003L14.211 8.38928C14.1416 8.13046 14.2156 7.85431 14.4051 7.66484L19.6706 2.39938C19.86 2.20992 20.1362 2.13592 20.395 2.20527L27.5877 4.13256Z" fill="white"/>
<path opacity="0.75" d="M14.4068 7.66494L16.25 5.83008L18.0933 7.6645C18.2837 7.85395 18.3582 8.13075 18.2887 8.39019L16.25 16.0005L14.2115 8.39052C14.142 8.13113 14.2165 7.85439 14.4068 7.66494Z" fill="#FFDD99"/>
<path opacity="0.75" d="M7.91469 17.8436L6.07983 16.0004L7.91425 14.157C8.10371 13.9667 8.38051 13.8921 8.63995 13.9616L16.2502 16.0004L8.64028 18.0389C8.38089 18.1084 8.10415 18.0339 7.91469 17.8436Z" fill="#FFDD99"/>
<path opacity="0.75" d="M18.0934 24.3351L16.2503 26.1699L14.4069 24.3355C14.2165 24.146 14.142 23.8692 14.2115 23.6098L16.2503 15.9995L18.2888 23.6095C18.3583 23.8689 18.2838 24.1456 18.0934 24.3351Z" fill="#FFDD99"/>
<path opacity="0.75" d="M24.6 14.1564L26.4348 15.9996L24.6004 17.843C24.4109 18.0333 24.1341 18.1079 23.8747 18.0384L16.2644 15.9996L23.8744 13.9611C24.1338 13.8916 24.4105 13.9661 24.6 14.1564Z" fill="#FFDD99"/>
</g>
<g clip-path="url(#clip2_1564_2158)">
<path d="M49.9948 6.98593C47.9839 6.98593 46.3211 7.87534 45.045 9.65414L44.8904 9.61547V6.98593H40.25V27.0942H44.8904V14.6039C45.1997 12.7477 47.4039 11.2396 49.7241 11.2396H53.1746V6.98593H49.9948Z" fill="white"/>
<path d="M53.8726 19.2442C53.8726 21.6804 54.7234 23.6912 56.4248 25.3154C58.1263 26.9008 60.2531 27.7129 62.7667 27.7129C65.2802 27.7129 67.407 26.9008 69.0698 25.3154C70.7713 23.6912 71.622 21.6804 71.622 19.2442V14.7972C71.622 12.361 70.7713 10.3502 69.0698 8.76474C67.407 7.14061 65.2802 6.32855 62.7667 6.32855C60.2531 6.32855 58.1263 7.14061 56.4248 8.76474C54.7234 10.3502 53.8726 12.361 53.8726 14.7972V19.2442ZM66.9817 19.6309C66.9817 21.8351 65.2029 23.4592 62.7667 23.4592C60.3305 23.4592 58.513 21.8351 58.513 19.6309V14.4105C58.513 12.2063 60.3305 10.5822 62.7667 10.5822C65.2029 10.5822 66.9817 12.2063 66.9817 14.4105V19.6309Z" fill="white"/>
<path d="M87.6243 19.0122C87.6243 21.3711 85.6522 23.2272 83.1773 23.2272C80.7025 23.2272 78.8076 21.7191 78.8076 19.3989V6.98593H74.1673V19.0122C74.1673 21.4871 74.902 23.5366 76.3328 25.122C77.8022 26.7075 79.6197 27.4809 81.7465 27.4809C84.1827 27.4809 86.3482 26.1661 87.4697 24.1553L87.663 24.1939L87.7403 27.0942H92.2647V6.98593H87.6243V19.0122Z" fill="white"/>
<path d="M105.332 22.8405C103.515 22.8405 102.625 22.1445 102.625 20.791V11.2396H107.575V6.98593H102.625V2.34557H98.0238V6.98593H94.4275V11.2396H97.9851V20.0176C97.9851 24.542 100.653 27.0942 105.448 27.0942H107.962V22.8405H105.332Z" fill="white"/>
<path d="M119.009 4.66575C119.434 4.66575 119.782 4.31773 119.782 3.89236V0.798786C119.782 0.373418 119.434 0.0253906 119.009 0.0253906H115.915C115.49 0.0253906 115.142 0.373418 115.142 0.798786V3.89236C115.142 4.31773 115.49 4.66575 115.915 4.66575H119.009ZM119.782 8.41671C119.782 7.60465 119.164 6.98593 118.352 6.98593H111.12V10.8529H115.142V23.2272H110.734V27.0942H124.075V23.2272H119.782V8.41671Z" fill="white"/>
<path d="M137.114 4.27906V0.0253906H133.827C129.07 0.0253906 126.402 2.50025 126.364 6.98593H122.419V11.2396H126.364L126.402 27.0942H131.004V11.2396H135.954V6.98593H131.004V6.32855C131.004 4.97511 131.893 4.27906 133.711 4.27906H137.114Z" fill="white"/>
<path d="M146.674 4.66575C147.1 4.66575 147.448 4.31773 147.448 3.89236V0.798786C147.448 0.373418 147.1 0.0253906 146.674 0.0253906H143.581C143.156 0.0253906 142.807 0.373418 142.807 0.798786V3.89236C142.807 4.31773 143.156 4.66575 143.581 4.66575H146.674ZM147.448 8.41671C147.448 7.60465 146.829 6.98593 146.017 6.98593H138.786V10.8529H142.807V23.2272H138.399V27.0942H151.74V23.2272H147.448V8.41671Z" fill="white"/>
<path d="M161.958 27.7129C163.543 27.7129 165.051 27.2875 166.482 26.4368C167.952 25.5861 169.034 24.5033 169.692 23.2272L165.593 21.2937C165.09 22.5311 163.466 23.4592 161.919 23.4592C159.328 23.4592 157.433 21.8351 157.433 19.6309V14.4105C157.433 12.245 159.251 10.6596 161.726 10.6596C163.157 10.6596 164.665 11.4716 165.283 12.6704L169.305 10.6596C168.648 9.42213 167.565 8.41671 166.134 7.60465C164.703 6.79259 163.273 6.40589 161.764 6.40589C159.174 6.40589 157.047 7.21795 155.345 8.80341C153.644 10.3889 152.793 12.361 152.793 14.7972V19.2442C152.793 21.6804 153.682 23.6912 155.423 25.3154C157.163 26.9008 159.367 27.7129 161.958 27.7129Z" fill="white"/>
</g>
</g>
<defs>
<clipPath id="clip0_1564_2158">
<rect width="169.5" height="32" fill="white" transform="translate(0.25)"/>
</clipPath>
<clipPath id="clip1_1564_2158">
<rect width="32" height="32" fill="white" transform="translate(0.25)"/>
</clipPath>
<clipPath id="clip2_1564_2158">
<rect width="129.5" height="32" fill="white" transform="translate(40.25)"/>
</clipPath>
</defs>
</svg>
