<svg width="138" height="44" viewBox="0 0 138 44" fill="none" xmlns="http://www.w3.org/2000/svg">
<path fill-rule="evenodd" clip-rule="evenodd" d="M10.2742 33.0855C8.30549 33.0855 6.58288 32.8922 5.10634 32.5058C3.6298 32.1193 1.98923 31.5599 0.184567 30.8277V22.8338C3.50678 25.3154 6.993 26.5562 10.6433 26.5562C12.0378 26.5562 13.053 26.3222 13.6887 25.8544C14.3244 25.3866 14.6423 24.7459 14.6423 23.9322C14.6423 22.9966 14.1296 22.305 13.1042 21.8575C12.0789 21.41 10.4383 20.9218 8.18245 20.393C5.80358 19.9048 3.84514 18.9285 2.30708 17.4639C0.769019 15.9994 0 13.8637 0 11.0567C0 8.65648 0.615216 6.68347 1.84567 5.13758C3.07612 3.5917 4.62441 2.46281 6.49059 1.75089C8.35677 1.03897 10.2947 0.68301 12.3044 0.68301C14.7653 0.68301 16.7648 0.896584 18.3029 1.32374C19.6687 1.70305 21.0102 2.26682 22.3275 3.01505C22.4936 3.10941 23.9513 4.21714 24.1167 4.31737C23.7557 4.86418 23.5058 5.58314 23.3668 6.47425C23.235 7.31912 23.1614 8.72629 23.146 10.6958C21.0542 9.55668 19.1129 8.49377 17.9645 8.0056C16.8161 7.51742 15.4831 7.27334 13.9655 7.27334C12.448 7.27334 11.3201 7.50725 10.5818 7.97509C9.84355 8.44292 9.47442 9.10398 9.47442 9.95829C9.47442 10.9753 9.88456 11.7177 10.7049 12.1856C11.5252 12.6534 12.8376 13.1314 14.6423 13.6196C16.693 14.1484 18.3131 14.6671 19.5025 15.1756C20.692 15.6841 21.7583 16.5588 22.7017 17.7996C23.645 19.0403 24.1167 20.7794 24.1167 23.0169C24.0347 26.5155 22.7017 29.0682 20.1178 30.6751C17.5338 32.282 14.2527 33.0855 10.2742 33.0855ZM40.8507 0.255859C45.8546 0.255859 49.7304 1.54747 52.4784 4.13073C55.2264 6.71399 56.6004 11.016 56.6004 17.0368C56.6004 21.8779 55.37 25.7629 52.9091 28.6919C50.4482 31.621 47.085 33.0855 42.8194 33.0855C39.7023 33.0855 37.0979 32.5363 35.0061 31.4379V43.215H26.0239V7.82253C26.0239 5.34098 27.4081 3.46967 30.1766 2.20855C32.9451 0.947431 36.5031 0.296541 40.8507 0.255859ZM40.1125 25.7629C42.6144 25.7629 44.46 25.0713 45.6495 23.6881C46.8389 22.305 47.4336 19.9862 47.4336 16.7317C47.4336 13.8026 46.9107 11.5957 45.8648 10.1108C44.8189 8.62598 43.0245 7.88356 40.4816 7.88356C36.8313 7.88356 35.0061 8.57513 35.0061 9.95829V24.4814C35.7444 24.9289 36.5647 25.2544 37.467 25.4578C38.3693 25.6612 39.2512 25.7629 40.1125 25.7629ZM73.1499 0.377903C76.5541 0.377903 79.6507 1.161 82.4397 2.72723C85.2288 4.29346 86.6232 7.1106 86.6232 11.1787L86.5617 25.7629C86.5207 28.3258 85.2288 30.1869 82.6858 31.3463C80.1429 32.5058 76.4311 33.0855 71.5503 33.0855C62.445 33.0855 57.8924 29.5666 57.8924 22.5287C57.8924 19.559 58.8255 17.2402 60.6916 15.5723C62.5578 13.9043 65.3365 13.0704 69.0279 13.0704C70.5455 13.0704 72.063 13.2636 73.5805 13.6501C75.0981 14.0366 76.4106 14.5349 77.518 15.1451V13.1924C77.518 9.65316 75.2212 7.88356 70.6275 7.88356C68.8638 7.88356 67.0489 8.19883 65.1828 8.82939C63.3166 9.45995 62.6606 9.64722 61.5531 10.5422C61.2531 8.93123 60.9659 7.73947 60.6916 6.96694C60.4524 6.29295 59.9692 5.31493 59.2421 4.03288C59.6457 3.76605 61.6071 2.54269 62.1658 2.30287C63.1404 1.88455 64.3511 1.50733 65.798 1.17118C68.0743 0.642327 70.5249 0.377903 73.1499 0.377903ZM71.8579 26.6782C73.9907 26.6782 75.4672 26.5358 76.2875 26.251C77.1078 25.9663 77.518 25.3967 77.518 24.5424V19.7828C76.0824 19.2946 74.5034 19.0505 72.7807 19.0505C70.771 19.0505 69.3048 19.3454 68.3819 19.9353C67.4591 20.5252 66.9977 21.4507 66.9977 22.7118C66.9977 23.8916 67.4796 24.8475 68.4434 25.5798C69.4073 26.3121 70.5454 26.6782 71.8579 26.6782ZM97.2358 1.07965C99.143 0.611816 100.978 0.377903 102.742 0.377903C106.146 0.377903 108.781 0.994971 110.094 2.012C109.123 3.40923 108.418 4.47402 107.979 5.20637C107.578 5.87373 107.023 6.90851 106.313 8.31071C104.93 8.1073 103.74 8.0056 102.742 8.0056C100.814 8.0056 99.2353 8.1073 98.0048 8.31071V32.1701H88.838C88.838 30.0151 88.838 28.4292 88.838 27.4123C88.838 18.5929 88.838 11.8029 88.838 7.04226C88.838 6.74891 88.838 5.93052 88.838 4.58712C90.3018 3.77029 91.3553 3.21854 91.9985 2.93187C94.5137 1.81078 96.3168 1.30508 97.2358 1.07965ZM123.167 0.255859C132.888 0.255859 137.687 6.54102 137.564 19.1115H117.015C117.794 23.3831 120.686 25.5188 125.69 25.5188C127.207 25.5188 128.694 25.3052 130.15 24.8781C131.606 24.4509 133.155 23.8915 134.795 23.2V31.0107C131.432 32.3939 127.659 33.0855 123.475 33.0855C120.317 33.0855 117.548 32.4447 115.17 31.1633C112.791 29.8818 110.945 28.041 109.633 25.6408C108.32 23.2406 107.664 20.4133 107.664 17.1588C107.664 11.7889 109.007 7.62931 111.694 4.67992C114.38 1.73053 118.205 0.255859 123.167 0.255859ZM122.798 7.21232C119.517 7.21232 117.569 9.24635 116.954 13.3145H128.458C128.171 11.1177 127.587 9.55148 126.705 8.61581C125.823 7.68015 124.521 7.21232 122.798 7.21232Z" fill="#716293"/>
</svg>
