<svg width="122" height="24" viewBox="0 0 122 24" fill="none" xmlns="http://www.w3.org/2000/svg">
<path fill-rule="evenodd" clip-rule="evenodd" d="M121.729 16.0359C120.44 17.0687 118.675 17.6654 116.934 17.6654C113.27 17.6654 110.918 15.508 110.896 12.1802C110.896 10.6655 111.438 9.26551 112.411 8.27864C113.429 7.24587 114.876 6.69506 116.504 6.69506H116.572C119.558 6.71801 122 9.24256 122 12.3179V12.8917H113.745L113.768 13.0753C114.039 14.7048 115.147 15.5769 116.979 15.5769C118.201 15.5769 119.354 15.1867 120.417 14.4294C120.417 14.4064 120.44 14.4064 120.462 14.4294L121.729 15.99C121.751 15.99 121.751 16.0129 121.729 16.0359ZM116.504 8.82945C115.261 8.82945 114.356 9.49502 113.971 10.7114C113.926 10.8261 113.949 10.9409 114.039 11.0327C114.107 11.1245 114.22 11.1933 114.333 11.1933H118.698C118.811 11.1933 118.924 11.1245 118.992 11.0327C119.06 10.9409 119.083 10.8261 119.037 10.7114C118.63 9.49502 117.748 8.82945 116.504 8.82945Z" fill="#303030"/>
<path d="M100.289 12.2261C100.289 15.3473 102.777 17.7112 106.101 17.7112C107.73 17.7112 109.222 17.1375 110.308 16.0818V16.0129L108.77 14.3146C108.182 15.0719 107.255 15.5309 106.282 15.5309C105.785 15.5309 105.31 15.4162 104.857 15.1867C104.835 15.1867 104.812 15.1637 104.79 15.1408L104.767 15.1178L104.722 15.0949C104.088 14.7736 103.568 14.1998 103.297 13.5113C103.229 13.3507 103.184 13.19 103.139 13.0064C103.116 12.9146 103.093 12.8457 103.093 12.7769L103.071 12.6621C103.071 12.6162 103.048 12.5474 103.048 12.5015C103.048 12.4326 103.048 12.3638 103.048 12.2949C103.048 12.249 103.048 12.2261 103.048 12.2261C103.048 12.1572 103.048 12.0884 103.048 12.0195V11.9736C103.048 11.9507 103.048 11.9507 103.048 11.9277C103.093 11.5605 103.184 11.1704 103.342 10.8261C103.365 10.7802 103.387 10.7114 103.41 10.6655C103.704 10.0687 104.156 9.63269 104.699 9.33433C105.174 9.05893 105.717 8.92123 106.282 8.92123C107.255 8.92123 108.159 9.35728 108.792 10.1376L110.33 8.39337C109.245 7.33765 107.73 6.74094 106.079 6.74094C102.777 6.74094 100.289 9.10483 100.289 12.2261Z" fill="#303030"/>
<path d="M98.7512 17.2063V11.8588C98.6607 9.42606 98.0049 7.17692 94.0019 7.17692C93.1651 7.17692 92.4188 7.29168 91.7856 7.54413L91.5594 7.63593V7.22283C91.5594 7.19987 91.5368 7.19987 91.5368 7.19987H89.2978C89.2752 7.19987 89.2752 7.22283 89.2752 7.22283V17.2063C89.2752 17.2292 89.2979 17.2522 89.3205 17.2522H91.8986C91.9213 17.2522 91.9439 17.2292 91.9439 17.2063V11.5834C91.9439 11.2621 91.9891 10.9637 92.057 10.6883C92.351 9.90802 93.1425 9.35721 94.0245 9.33426C94.8839 9.33426 95.6981 9.88507 95.9921 10.6654C96.0825 10.9408 96.1051 11.2391 96.1051 11.5605V17.1833C96.1051 17.2063 96.1278 17.2292 96.1504 17.2292H98.7286C98.7286 17.2522 98.7512 17.2292 98.7512 17.2063Z" fill="#303030"/>
<path d="M77.5604 7.22283V12.5932C77.6509 15.026 78.3067 17.2751 82.3097 17.2751C86.3805 17.2751 86.9685 14.5211 87.059 12.4785V7.22283C87.059 7.19987 87.0363 7.17692 87.0137 7.17692H84.4355C84.4129 7.17692 84.3903 7.19987 84.3903 7.22283V12.8457C84.3903 13.167 84.3451 13.4653 84.2772 13.7407C83.9832 14.5211 83.1917 15.0719 82.3097 15.0948C81.4503 15.0948 80.6361 14.544 80.3421 13.7637C80.2517 13.4883 80.229 13.1899 80.229 12.8686V7.22283C80.229 7.19987 80.2064 7.17692 80.1838 7.17692H77.6056C77.583 7.17692 77.5604 7.19987 77.5604 7.22283Z" fill="#303030"/>
<path fill-rule="evenodd" clip-rule="evenodd" d="M64.2624 12.1802C64.2624 9.05896 66.7728 6.69506 70.0746 6.69506C73.3991 6.69506 75.9095 9.03601 75.9095 12.1802C75.9095 15.3015 73.3991 17.6654 70.0746 17.6654C66.7502 17.6654 64.2624 15.3015 64.2624 12.1802ZM67.0442 12.1802C67.0442 14.0162 68.3559 15.3933 70.0746 15.3933C71.7708 15.3933 73.1277 13.9703 73.1277 12.1802C73.1277 10.3901 71.7934 8.96716 70.0746 8.96716C68.3785 8.96716 67.0442 10.3671 67.0442 12.1802Z" fill="#303030"/>
<path fill-rule="evenodd" clip-rule="evenodd" d="M63.0185 12.1572C63.0185 15.1867 60.9379 17.4817 58.2014 17.4817C56.6409 17.4817 55.284 16.8391 54.3567 15.6687L54.0627 15.3244V17.2063C54.0627 17.2293 54.0401 17.2522 54.0175 17.2522H51.5976C51.575 17.2522 51.5524 17.2293 51.5524 17.2063V2.10496C51.5524 2.08201 51.575 2.05906 51.5976 2.05906H54.1758C54.1984 2.05906 54.221 2.08201 54.221 2.10496V8.80648L54.515 8.48518C55.4423 7.38356 56.754 6.78685 58.2014 6.78685C60.9152 6.78685 63.0185 9.15074 63.0185 12.1572ZM60.6213 12.1343C60.6213 10.3671 59.3548 9.08189 57.636 9.08189C55.9172 9.08189 54.6055 10.413 54.6055 12.1572C54.6055 13.8556 55.9398 15.1867 57.636 15.1867C59.3322 15.1867 60.6213 13.8785 60.6213 12.1343Z" fill="#303030"/>
<path d="M49.4718 17.2522C49.4944 17.2522 49.517 17.2292 49.517 17.2063V11.8588C49.4265 9.42606 48.7707 7.17692 44.7677 7.17692C43.931 7.17692 43.1846 7.29168 42.5514 7.54413L42.3252 7.63593V7.22283C42.3252 7.19987 42.3026 7.19987 42.28 7.19987H40.0411C40.0185 7.19987 40.0185 7.22283 40.0185 7.22283V17.2063C40.0185 17.2292 40.0411 17.2522 40.0637 17.2522H42.6419C42.6645 17.2522 42.6871 17.2292 42.6871 17.2063V11.5834C42.6871 11.2621 42.7323 10.9637 42.8002 10.6883C43.0942 9.90802 43.8857 9.35721 44.7677 9.33426C45.6271 9.33426 46.4413 9.88507 46.7353 10.6654C46.8257 10.9408 46.8484 11.2391 46.8484 11.5605V17.1833C46.8484 17.2063 46.871 17.2292 46.8936 17.2292H49.4718V17.2522Z" fill="#303030"/>
<path d="M28.4845 7.22283V12.5932C28.5749 15.026 29.2308 17.2751 33.2337 17.2751C37.3045 17.2751 37.8925 14.5211 37.983 12.4785V7.22283C37.983 7.19987 37.9604 7.17692 37.9378 7.17692H35.3596C35.337 7.17692 35.3144 7.19987 35.3144 7.22283V12.8457C35.3144 13.167 35.2691 13.4653 35.2013 13.7407C34.9073 14.5211 34.1157 15.0719 33.2337 15.0948C32.3743 15.0948 31.5602 14.544 31.2662 13.7637C31.1757 13.4883 31.1531 13.1899 31.1531 12.8686V7.22283C31.1531 7.19987 31.1305 7.17692 31.1079 7.17692H28.5297C28.4845 7.17692 28.4845 7.19987 28.4845 7.22283Z" fill="#303030"/>
<path fill-rule="evenodd" clip-rule="evenodd" d="M11.9492 0C5.3457 0 0 5.36842 0 12C0 18.6316 5.3457 24 11.9492 24C18.5527 24 23.8984 18.6316 23.8984 12C23.8984 5.36842 18.5527 0 11.9492 0ZM11.5224 16.7143L10.6465 19.3083C10.624 19.3985 10.5791 19.4662 10.5342 19.5338C10.4219 19.7143 10.2871 19.8496 10.1074 19.9398C9.95019 20.0301 9.7705 20.0752 9.59081 20.0752C9.47851 20.0752 9.34374 20.0526 9.23144 20.0075C8.7373 19.8271 8.42284 19.3308 8.49023 18.8346C6.01952 17.5714 4.33496 14.9774 4.33496 12C4.33496 7.7594 7.74902 4.30827 11.9941 4.30827C12.4883 4.30827 12.9599 4.35338 13.4316 4.44361C13.7012 4.01504 14.2402 3.81203 14.7344 3.96992C15.0039 4.06015 15.206 4.2406 15.3408 4.46617C15.4531 4.66917 15.5205 4.89474 15.498 5.14286C15.498 5.23308 15.4756 5.32331 15.4531 5.39098L14.5771 7.98496L11.5224 16.7143ZM13.5439 16.4662L12.4883 19.6692C16.4639 19.3759 19.5859 16.0602 19.6084 12C19.6084 9.65413 18.5527 7.55639 16.9131 6.15789L15.8574 9.3609C16.374 10.1053 16.666 11.0301 16.666 12C16.666 14.0752 15.3633 15.812 13.5439 16.4662Z" fill="#303030"/>
<path d="M7.23242 12C7.23242 13.6692 8.10839 15.1353 9.41112 15.9925L12.376 7.28571C12.2412 7.26316 12.084 7.26316 11.9492 7.26316C9.34374 7.26316 7.23242 9.38346 7.23242 12Z" fill="#303030"/>
</svg>
