<?xml version="1.0" encoding="UTF-8"?>
<svg width="569px" height="301px" viewBox="0 0 569 301" version="1.1" xmlns="http://www.w3.org/2000/svg" xmlns:xlink="http://www.w3.org/1999/xlink">
    <title>Group 21 Copy</title>
    <defs>
        <polygon id="path-1" points="0 0 165.891937 0 165.891937 197 0 197"></polygon>
        <polygon id="path-3" points="0 0 73.788199 0 73.788199 82.9798525 0 82.9798525"></polygon>
    </defs>
    <g id="Venovis-Version-3" stroke="none" stroke-width="1" fill="none" fill-rule="evenodd">
        <g id="Intro-Text-Slide-1-Copy" transform="translate(-676, -288)">
            <g id="Group-21-Copy" transform="translate(676, 288)">
                <g id="Group-4" transform="translate(154, 0)">
                    <g id="Group-3">
                        <mask id="mask-2" fill="white">
                            <use xlink:href="#path-1"></use>
                        </mask>
                        <g id="Clip-2"></g>
                        <path d="M165.891937,112.728521 C163.426327,118.540643 152.358413,151.075357 127.845034,192.216483 C127.845034,192.224138 127.813151,192.289977 127.77975,192.337441 L127.715984,192.427777 C127.596043,192.63754 127.466994,192.839648 127.347053,193.050942 C127.337944,193.060129 127.337944,193.067784 127.330353,193.07544 C127.330353,193.083095 127.322762,193.083095 127.322762,193.090751 C126.366275,194.687706 124.887517,195.895758 123.159768,196.520454 C118.980075,198.03626 114.375276,195.839107 112.879817,191.633127 C89.4200906,125.64809 51.4445445,64.6728694 2.4344856,14.5012132 C0.85096924,12.855262 -0.000759116182,10.7484444 -0.000759116182,8.51148183 C-0.000759116182,3.81860689 3.7857124,0 8.43909459,0 L102.625676,0 L102.745616,0.162298448 C129.206888,35.2095766 150.90091,74.4107763 165.828171,112.581534 L165.891937,112.728521 Z" id="Fill-1" fill="#767676" mask="url(#mask-2)"></path>
                    </g>
                    <g id="Group-6" transform="translate(118.2118, 0.0068)">
                        <mask id="mask-4" fill="white">
                            <use xlink:href="#path-3"></use>
                        </mask>
                        <g id="Clip-5"></g>
                        <path d="M73.7249137,9.80017392 L73.6931995,10.0073027 C69.9041093,38.3337361 64.4039631,61.3344485 60.1270784,76.8769547 C60.1270784,76.9004921 60.1180172,76.9255986 60.1104662,76.9507051 C60.1029153,76.9836574 60.0863031,77.0260247 60.0787521,77.058977 C59.4399377,79.2934575 57.9116159,81.1450635 55.889459,82.1587393 C51.9644507,84.1186172 47.270751,82.4490334 45.3044714,78.4382666 C45.2410431,78.3048882 45.1776147,78.1715098 45.1126761,78.0302856 C36.7507021,59.9802655 22.3600121,31.821732 0.463631212,0.662969095 L0,0.00706120929 C69.1761932,0.0305985736 65.4505313,-0.0604125684 66.546936,0.0823807751 C71.0624322,0.738288661 74.2851977,5.0911319 73.7249137,9.80017392" id="Fill-4" fill="#767676" mask="url(#mask-4)"></path>
                    </g>
                </g>
                <g id="Group-2" transform="translate(0, 221)" fill="#767676">
                    <path d="M58.9471252,1.34663942 L30.7258337,79.3315767 C30.5826894,79.7255208 30.2089238,79.9874837 29.7914197,79.9874837 L29.2148664,79.9874837 C28.7973622,79.9874837 28.4235966,79.7255208 28.2824405,79.3315767 L0.0611489517,1.34663942 C-0.175436726,0.694731894 0.303698974,0.00482976167 0.995562971,0.00482976167 L10.1011294,0.00482976167 C10.5186335,0.00482976167 10.8923991,0.2667926 11.0355434,0.662736433 L29.503143,51.7034959 L47.9727308,0.662736433 C48.1158751,0.2667926 48.4896407,0.00482976167 48.9071448,0.00482976167 L58.0127112,0.00482976167 C58.7025871,0.00482976167 59.1837109,0.694731894 58.9471252,1.34663942" id="Fill-7"></path>
                    <path d="M441.631019,1.34663942 L413.409728,79.3315767 C413.266583,79.7255208 412.894806,79.9874837 412.475314,79.9874837 L411.900748,79.9874837 C411.481256,79.9874837 411.10749,79.7255208 410.966334,79.3315767 L382.745043,1.34663942 C382.508457,0.694731894 382.989581,0.00482976167 383.679457,0.00482976167 L392.785023,0.00482976167 C393.204515,0.00482976167 393.576293,0.2667926 393.717449,0.662736433 L412.187037,51.7034959 L430.656625,0.662736433 C430.799769,0.2667926 431.173534,0.00482976167 431.591039,0.00482976167 L440.696605,0.00482976167 C441.386481,0.00482976167 441.867605,0.694731894 441.631019,1.34663942" id="Fill-9"></path>
                    <path d="M484.511477,79.9866838 L478.549121,79.9866838 C477.449693,79.9866838 476.561006,79.0928106 476.561006,77.9869674 L476.561006,4.00346253 C476.561006,1.7957757 478.340368,0.00402987514 480.537235,0.00402987514 L482.523362,0.00402987514 C484.720229,0.00402987514 486.499592,1.7957757 486.499592,4.00346253 L486.499592,77.9869674 C486.499592,79.0928106 485.610905,79.9866838 484.511477,79.9866838" id="Fill-11"></path>
                    <path d="M262.854157,40.7862446 L262.854157,78.9868256 C262.854157,79.5387473 262.40882,79.9866838 261.8601,79.9866838 L253.90764,79.9866838 C253.35892,79.9866838 252.913583,79.5387473 252.913583,78.9868256 L252.913583,40.6202682 C252.913583,24.2745869 240.171754,10.4585468 223.928855,10.0146098 C207.075605,9.55067562 193.274111,23.1507464 193.274111,39.9963567 L193.274111,78.9868256 C193.274111,79.5387473 192.828773,79.9866838 192.280053,79.9866838 L184.329582,79.9866838 C183.780862,79.9866838 183.335524,79.5387473 183.335524,78.9868256 L183.335524,39.9963567 C183.335524,18.169453 200.721589,0.42597002 222.322458,0.0120287405 C244.609227,-0.415910553 262.854157,18.3654252 262.854157,40.7862446" id="Fill-13"></path>
                    <path d="M323.487687,69.9901019 C307.016154,69.9901019 293.667951,56.5620067 293.667951,39.9963567 C293.667951,23.4287069 307.016154,10.0026115 323.487687,10.0026115 C339.957231,10.0026115 353.305434,23.4287069 353.305434,39.9963567 C353.305434,56.5620067 339.957231,69.9901019 323.487687,69.9901019 M323.487687,0.00402987514 C301.528957,0.00402987514 283.727376,17.9114896 283.727376,39.9963567 C283.727376,62.0812238 301.528957,79.9866838 323.487687,79.9866838 C345.444428,79.9866838 363.246009,62.0812238 363.246009,39.9963567 C363.246009,17.9114896 345.444428,0.00402987514 323.487687,0.00402987514" id="Fill-15"></path>
                    <path d="M561.480949,12.9611918 C560.830836,13.8150707 559.635979,13.9870463 558.757232,13.3751331 C554.989754,10.7475058 550.327625,9.06574441 545.661519,9.06574441 C540.04907,9.06574441 532.957464,12.3452792 532.957464,19.5322597 C532.957464,28.5909746 542.265818,31.5605534 551.421088,35.6219772 C560.284104,39.5274232 569,44.8386698 569,58.4287419 C569,71.8648359 555.707464,79.9876836 543.593879,79.9876836 C536.045007,79.9876836 528.368895,77.0201046 522.579504,71.0849465 C521.835949,70.3230546 521.800163,69.1092268 522.513897,68.3193389 L525.913573,64.5478739 C526.675021,63.7019939 527.97326,63.679997 528.786399,64.4778838 C532.834201,68.445321 537.832322,70.926969 543.890108,70.926969 C550.832606,70.926969 558.956043,67.021523 558.956043,58.272764 C558.956043,49.5240051 551.275955,46.4004482 543.15053,42.9629359 C533.697043,38.901512 523.503978,34.3721545 523.503978,20.4681269 C523.503978,7.34598837 533.846152,0.00502973331 545.95576,0.00502973331 C552.804816,0.00502973331 558.918269,2.06873698 564.19075,6.08216765 C565.071485,6.75207262 565.240475,8.01789305 564.57048,8.89976795 L561.480949,12.9611918 Z" id="Fill-17"></path>
                    <path d="M119.719624,10.0026115 C130.415682,10.0026115 139.789644,15.6618087 145.04622,24.168602 L90.6851932,46.8153894 C90.1682834,44.6237003 89.8998878,42.3460234 89.8998878,39.9963567 C89.8998878,23.4287069 103.25008,10.0026115 119.719624,10.0026115 M157.549475,48.2451865 C154.112024,48.4271607 151.282936,48.559142 148.934973,48.6571281 C148.523433,48.6731258 148.179489,48.9490867 148.05225,49.3430308 C144.151568,61.3293304 132.946552,69.9901019 119.719624,69.9901019 C109.115019,69.9901019 99.7987121,64.4208919 94.5421362,56.0340816 L157.467962,29.7738068 C157.939145,29.5778346 158.195612,29.0519092 158.048492,28.5619787 C154.346622,16.1417406 144.590942,5.87319729 132.193057,1.95375329 C131.737779,1.56380861 124.610386,-0.315924737 118.139072,0.046023918 C118.129132,0.03402562 118.119191,0.046023918 118.119191,0.046023918 C106.480766,0.733926334 96.182331,6.11316325 89.4426214,14.3719917 L89.4326808,14.3719917 C75.8856657,30.8176587 77.7047908,54.3023273 92.0172302,68.4703175 L92.0271708,68.480316 C99.900106,76.157227 109.542463,79.8387048 119.671909,79.9986821 L119.679861,79.9986821 C137.739898,80.1466611 154.102083,67.8204096 158.565401,49.4630138 C158.724451,48.8351028 158.215493,48.2131911 157.549475,48.2451865" id="Fill-19"></path>
                </g>
            </g>
        </g>
    </g>
</svg>